<svg width="161" height="64" viewBox="0 0 161 64" fill="none" xmlns="http://www.w3.org/2000/svg">
<path d="M89.6643 17.904C88.4696 17.904 87.4243 17.4747 86.5283 16.616C85.6696 15.72 85.2403 14.6747 85.2403 13.48C85.2403 12.2853 85.6696 11.24 86.5283 10.344C87.4243 9.448 88.4696 9 89.6643 9C90.8963 9 91.9416 9.448 92.8003 10.344C93.6963 11.24 94.1443 12.2853 94.1443 13.48C94.1443 14.6747 93.6963 15.72 92.8003 16.616C91.9416 17.4747 90.8963 17.904 89.6643 17.904Z" fill="#FFF"/>
<path d="M79.5716 24.0042C80.8434 23.288 83.0714 23.004 84.9754 23.004H93.3043V51.004H86.0803V30.508C83.6006 30.5 81.3263 30.6947 79.5716 31.852C77.8543 33.0093 76.9956 34.932 76.9956 37.62V51.004H69.9956V25.004C69.9956 23.8994 70.8911 23.004 71.9956 23.004H76.9956V26.5042C77.5279 25.5042 78.2999 24.7203 79.5716 24.0042Z" fill="#FFF"/>
<path d="M56.996 36.832L68.588 51H60.188L49.996 38.288V51H42.996V15.3213C42.996 13.8859 43.7651 12.5605 45.0114 11.8484L48.4998 9.85498C49.1665 9.47403 49.996 9.9554 49.996 10.7232V35.32L58.4269 24.5363C59.185 23.5667 60.3473 23 61.5781 23H68.252L56.996 36.832Z" fill="#FFF"/>
<path d="M25.048 30.952C25.048 31.6986 25.5333 32.3146 26.504 32.8C27.512 33.248 28.7253 33.6586 30.144 34.032C31.5626 34.368 32.9813 34.816 34.4 35.376C35.8186 35.8986 37.0133 36.7946 37.984 38.064C38.992 39.3333 39.496 40.92 39.496 42.824C39.496 45.6986 38.4133 47.92 36.248 49.488C34.12 51.0186 31.4506 51.784 28.24 51.784C23.2387 51.784 19.6217 50.1031 17.3889 46.7412C16.8089 45.868 17.1874 44.7221 18.101 44.2081L22.752 41.592C23.5733 44.0186 25.4026 45.232 28.24 45.232C30.816 45.232 32.104 44.4293 32.104 42.824C32.104 42.0773 31.6 41.48 30.592 41.032C29.6213 40.5466 28.4266 40.1173 27.008 39.744C25.5893 39.3706 24.1706 38.904 22.752 38.344C21.3333 37.784 20.12 36.9066 19.112 35.712C18.1413 34.48 17.656 32.9493 17.656 31.12C17.656 28.3573 18.664 26.192 20.68 24.624C22.7333 23.0186 25.272 22.216 28.296 22.216C30.5733 22.216 32.6453 22.7386 34.512 23.784C36.3786 24.792 37.8533 26.248 38.936 28.152L34.6395 30.4955C33.6287 31.0468 32.4012 30.5699 31.5463 29.7987C30.7019 29.0369 29.6184 28.656 28.296 28.656C27.3626 28.656 26.5786 28.8613 25.944 29.272C25.3466 29.6826 25.048 30.2426 25.048 30.952Z" fill="#FFF"/>
<path d="M120.286 34.9826C120.276 34.9381 120.265 34.8939 120.254 34.8498L120.256 34.8555C120.266 34.8977 120.276 34.9401 120.286 34.9826Z" fill="#FFF"/>
<path d="M133.768 51.787C137.912 51.787 141.421 50.3683 144.296 47.531C147.17 44.6563 148.608 41.147 148.608 37.003C148.608 32.859 147.17 29.3683 144.296 26.531C141.421 23.6563 137.912 22.219 133.768 22.219C132.35 22.219 131.007 22.3871 129.739 22.7234C131.138 24.3418 132.258 26.1023 133.096 27.9826C133.437 28.7487 134.183 29.2527 135.012 29.3809C136.62 29.6298 138.063 30.3222 139.2 31.459C140.656 32.915 141.384 34.763 141.384 37.003C141.384 39.243 140.656 41.091 139.2 42.547C137.744 44.003 135.791 44.7299 133.625 44.7299C132.759 47.1017 131.47 49.3035 129.765 51.2962C131.026 51.6234 132.36 51.787 133.768 51.787Z" fill="#FFF"/>
<path fill-rule="evenodd" clip-rule="evenodd" d="M117.433 22.8705C119.786 23.4092 121.89 24.5695 123.7 26.532C126.388 29.3693 127.732 32.86 127.732 37.004C127.732 41.148 126.388 44.6573 123.7 47.532C121.9 49.4587 119.808 50.6003 117.471 51.1346C116.042 51.5702 114.515 51.788 112.892 51.788C109.937 51.788 107.305 50.5585 104.996 48.8243V51.004H97.9956V15.3485C97.9956 13.9007 98.778 12.5659 100.041 11.8585L103.507 9.91762C104.174 9.54433 104.996 10.0261 104.996 10.7901V25.2123C107.305 23.4591 109.937 22.22 112.892 22.22C114.501 22.22 116.015 22.4369 117.433 22.8705ZM112.724 44.9C110.484 44.9 108.636 44.172 107.18 42.716C105.724 41.2227 104.996 39.3187 104.996 37.004C104.996 34.6893 105.724 32.804 107.18 31.348C108.636 29.8547 110.484 29.108 112.724 29.108C114.964 29.108 116.812 29.8547 118.268 31.348C118.758 31.8261 119.168 32.3504 119.497 32.9211C120.171 34.0884 120.508 35.4494 120.508 37.004C120.508 38.5558 120.172 39.923 119.501 41.1056C119.171 41.687 118.76 42.2238 118.268 42.716C116.812 44.172 114.964 44.9 112.724 44.9Z" fill="#FFF"/>
</svg>
