<svg width="36" height="36" viewBox="0 0 36 36" fill="none" xmlns="http://www.w3.org/2000/svg">
<g clip-path="url(#clip0_457_23)">
<path d="M5.625 30.375H30.375" stroke="white" stroke-width="2.25" stroke-linecap="round" stroke-linejoin="round"/>
<path d="M13.5 30.375V18.5625H11.8125C9.57474 18.5625 7.42862 17.6736 5.84629 16.0912C4.26395 14.5089 3.375 12.3628 3.375 10.125V10.125C3.3787 9.38022 3.6762 8.66699 4.20285 8.14035C4.72949 7.6137 5.44272 7.3162 6.1875 7.3125C6.93228 7.3162 7.64551 7.6137 8.17215 8.14035C8.6988 8.66699 8.9963 9.38022 9 10.125C9.0037 10.8698 9.3012 11.583 9.82785 12.1097C10.3545 12.6363 11.0677 12.9338 11.8125 12.9375H13.5V7.875C13.5 6.68153 13.9741 5.53693 14.818 4.69302C15.6619 3.84911 16.8065 3.375 18 3.375V3.375C19.1935 3.375 20.3381 3.84911 21.182 4.69302C22.0259 5.53693 22.5 6.68153 22.5 7.875V18.5625H24.1875C24.9323 18.5588 25.6455 18.2613 26.1722 17.7347C26.6988 17.208 26.9963 16.4948 27 15.75V15.75C27.0037 15.0052 27.3012 14.292 27.8278 13.7653C28.3545 13.2387 29.0677 12.9412 29.8125 12.9375C30.5573 12.9412 31.2705 13.2387 31.7972 13.7653C32.3238 14.292 32.6213 15.0052 32.625 15.75V15.75C32.625 17.9878 31.7361 20.1339 30.1537 21.7162C28.5714 23.2986 26.4253 24.1875 24.1875 24.1875H22.5V30.375" stroke="white" stroke-width="2.25" stroke-linecap="round" stroke-linejoin="round"/>
</g>
<defs>
<clipPath id="clip0_457_23">
<rect width="36" height="36" fill="white"/>
</clipPath>
</defs>
</svg>
