<svg width="24" height="24" viewBox="0 0 24 24" fill="none" xmlns="http://www.w3.org/2000/svg">
<g clip-path="url(#clip0_77_41747)">
<path d="M16.1063 13.5C16.0237 14.3956 15.6514 15.2399 15.0457 15.9048C14.44 16.5696 13.634 17.0189 12.75 17.1844" stroke="#2C2A33" stroke-width="2" stroke-linecap="round" stroke-linejoin="round"/>
<path d="M6.75 6.13123C5.30625 8.30623 4.125 10.8 4.125 13.125C4.125 15.2136 4.95468 17.2166 6.43153 18.6934C7.90838 20.1703 9.91142 21 12 21C14.0886 21 16.0916 20.1703 17.5685 18.6934C19.0453 17.2166 19.875 15.2136 19.875 13.125C19.875 8.24998 16.5 4.49998 13.7625 1.77185L10.5 8.62498L6.75 6.13123Z" stroke="#2C2A33" stroke-width="2" stroke-linecap="round" stroke-linejoin="round"/>
</g>
<defs>
<clipPath id="clip0_77_41747">
<rect width="24" height="24" fill="white"/>
</clipPath>
</defs>
</svg>
