<svg width="18" height="18" viewBox="0 0 18 18" fill="none" xmlns="http://www.w3.org/2000/svg">
<g clip-path="url(#clip0_85_1358)">
<path d="M8.59379 2.08944L6.7194 3.96382C6.49973 4.18349 6.49973 4.53965 6.7194 4.75932L8.59578 6.63569C8.81545 6.85536 9.1716 6.85536 9.39127 6.63569L11.2657 4.76131C11.4853 4.54164 11.4853 4.18548 11.2657 3.96581L9.38928 2.08944C9.16961 1.86977 8.81346 1.86977 8.59379 2.08944Z" stroke="#585466" stroke-width="2" stroke-linecap="round" stroke-linejoin="round"/>
<path d="M13.2371 6.73006L11.3627 8.60445C11.143 8.82412 11.143 9.18027 11.3627 9.39994L13.2391 11.2763C13.4588 11.496 13.8149 11.496 14.0346 11.2763L15.909 9.40193C16.1286 9.18226 16.1286 8.82611 15.909 8.60644L14.0326 6.73006C13.8129 6.51039 13.4568 6.51039 13.2371 6.73006Z" stroke="#585466" stroke-width="2" stroke-linecap="round" stroke-linejoin="round"/>
<path d="M3.95316 6.72567L2.07878 8.60006C1.85911 8.81973 1.85911 9.17588 2.07878 9.39555L3.95515 11.2719C4.17482 11.4916 4.53098 11.4916 4.75065 11.2719L6.62503 9.39754C6.8447 9.17787 6.8447 8.82171 6.62503 8.60204L4.74866 6.72567C4.52899 6.506 4.17283 6.506 3.95316 6.72567Z" stroke="#585466" stroke-width="2" stroke-linecap="round" stroke-linejoin="round"/>
<path d="M8.59647 11.3663L6.72209 13.2407C6.50242 13.4604 6.50242 13.8165 6.72209 14.0362L8.59846 15.9125C8.81813 16.1322 9.17429 16.1322 9.39396 15.9125L11.2683 14.0382C11.488 13.8185 11.488 13.4623 11.2683 13.2427L9.39197 11.3663C9.1723 11.1466 8.81614 11.1466 8.59647 11.3663Z" stroke="#585466" stroke-width="2" stroke-linecap="round" stroke-linejoin="round"/>
</g>
<defs>
<clipPath id="clip0_85_1358">
<rect width="18" height="18" fill="white"/>
</clipPath>
</defs>
</svg>
