<svg width="144" height="64" viewBox="0 0 144 64" fill="none" xmlns="http://www.w3.org/2000/svg">
<path fill-rule="evenodd" clip-rule="evenodd" d="M71.1993 17.9025C70.0046 17.9025 68.9592 17.4732 68.0632 16.6145C67.2045 15.7184 66.7751 14.673 66.7751 13.4783C66.7751 12.2836 67.2045 11.2382 68.0632 10.3422C68.9592 9.44613 70.0046 8.99811 71.1993 8.99811C72.4314 8.99811 73.4767 9.44613 74.3355 10.3422C75.2315 11.2382 75.6795 12.2836 75.6795 13.4783C75.6795 14.673 75.2315 15.7184 74.3355 16.6145C73.4767 17.4732 72.4314 17.9025 71.1993 17.9025ZM61.1062 24.0029C62.378 23.2867 64.6061 23.0027 66.5102 23.0027H74.8395V51.004H67.6151V30.5071C65.1353 30.4991 62.8609 30.6938 61.1062 31.8511C59.3888 33.0085 58.5301 34.9313 58.5301 37.6194V51.004H51.5298V25.0027C51.5298 23.8982 52.4252 23.0027 53.5298 23.0027H58.5301V26.5031C59.0624 25.503 59.8344 24.7191 61.1062 24.0029ZM115.305 51.7871C119.449 51.7871 122.958 50.3683 125.833 47.5309C128.708 44.6561 130.145 41.1466 130.145 37.0024C130.145 32.8582 128.708 29.3674 125.833 26.5299C122.958 23.6551 119.449 22.2177 115.305 22.2177C113.887 22.2177 112.544 22.3858 111.275 22.7221C112.675 24.3406 113.795 26.1012 114.633 27.9816C114.975 28.7478 115.72 29.2517 116.549 29.38C118.158 29.6289 119.6 30.3212 120.737 31.4581C122.193 32.9142 122.921 34.7623 122.921 37.0024C122.921 39.2425 122.193 41.0906 120.737 42.5466C119.281 44.0027 117.328 44.7297 115.162 44.7297C114.296 47.1016 113.007 49.3034 111.302 51.2962C112.563 51.6235 113.897 51.7871 115.305 51.7871ZM105.236 26.5309C103.427 24.5683 101.322 23.408 98.9693 22.8693C97.5512 22.4356 96.0374 22.2188 94.4277 22.2188C91.473 22.2188 88.8408 23.4579 86.5314 25.2111V10.7882C86.5314 10.0242 85.7093 9.54244 85.0428 9.91573L81.5766 11.8568C80.3134 12.5642 79.531 13.899 79.531 15.3468V51.004H86.5314V48.8242C88.8408 50.5585 91.473 51.7881 94.4277 51.7881C96.0515 51.7881 97.5779 51.5703 99.0068 51.1347C101.345 50.6003 103.436 49.4587 105.236 47.5319C107.924 44.6571 109.268 41.1476 109.268 37.0034C109.268 32.8592 107.924 29.3684 105.236 26.5309ZM88.7155 42.7156C90.1715 44.1717 92.0196 44.8997 94.2597 44.8997C96.4998 44.8997 98.3479 44.1717 99.804 42.7156C100.296 42.2234 100.707 41.6866 101.037 41.1052C101.708 39.9225 102.044 38.5552 102.044 37.0034C102.044 35.4487 101.707 34.0876 101.034 32.9203C100.704 32.3496 100.294 31.8252 99.804 31.3471C98.3479 29.8537 96.4998 29.107 94.2597 29.107C92.0196 29.107 90.1715 29.8537 88.7155 31.3471C87.2594 32.8032 86.5314 34.6886 86.5314 37.0034C86.5314 39.3182 87.2594 41.2222 88.7155 42.7156ZM38.2743 37.9831L49.1918 51H40.7914L34.1718 42.7437C32.6514 40.8474 30.3513 39.7451 27.9208 39.748L25.8781 39.7504C24.3264 39.7517 22.7737 39.5749 21.3013 39.0854C20.6291 38.862 19.9569 38.6176 19.2847 38.3523C17.866 37.7922 16.6526 36.9149 15.6445 35.7201C14.6738 34.4881 14.1885 32.9574 14.1885 31.1279C14.1885 28.3652 15.1965 26.1997 17.2126 24.6316C19.266 23.0262 20.9159 22.2235 23.94 22.2235H25.3018V15.3285C25.3018 13.8931 26.0709 12.5677 27.3172 11.8555L30.806 9.86194C31.4726 9.481 32.3021 9.95793 32.3021 10.7257V23.4014C32.3021 26.1734 31.8867 27.2972 30.4561 28.384C29.5099 29.1029 28.5775 28.9932 27.2452 28.8366C26.5631 28.7564 25.7762 28.6638 24.8289 28.6638C23.8956 28.6638 23.1115 28.8692 22.4768 29.2799C21.8795 29.6905 21.635 30.4186 21.635 31.1279C21.635 31.8746 22.0794 32.777 23.0369 33.2214C23.6033 33.4844 24.7737 33.7228 25.6351 33.8736C26.3272 33.9947 27.0296 34.0394 27.7322 34.0382L28.1844 34.0374C30.3479 34.0335 32.3932 33.0498 33.7469 31.3622L39.2544 24.4959C40.0136 23.5495 41.1614 22.9987 42.3747 22.9987H48.8557L38.2756 35.5722C37.8534 36.0739 37.3332 36.4839 36.7468 36.7772C37.3331 37.0703 37.8531 37.4808 38.2743 37.9831ZM14.1616 46.2747C16.4099 49.4048 19.947 50.9698 24.7729 50.9698L34.1689 51L29.3977 45.1531C29.0179 44.6876 28.4489 44.4175 27.8481 44.4175H24.7729C22.5141 44.4175 20.8942 43.6486 19.913 42.1107L15.1879 43.6136C14.0357 43.98 13.4563 45.2927 14.1616 46.2747Z" fill="#16151A"/>
</svg>
