<svg width="18" height="18" viewBox="0 0 18 18" fill="none" xmlns="http://www.w3.org/2000/svg">
<g clip-path="url(#clip0_482_37)">
<path d="M14.7867 2.52417L1.68048 6.21557C1.56891 6.24607 1.46946 6.31023 1.39567 6.39929C1.32188 6.48836 1.27734 6.59801 1.26812 6.7133C1.2589 6.8286 1.28544 6.94393 1.34413 7.04359C1.40282 7.14326 1.49081 7.22241 1.59611 7.27026L7.61486 10.1179C7.73276 10.1725 7.82744 10.2672 7.88204 10.3851L10.7297 16.4039C10.7776 16.5092 10.8567 16.5971 10.9564 16.6558C11.056 16.7145 11.1714 16.7411 11.2867 16.7318C11.402 16.7226 11.5116 16.6781 11.6007 16.6043C11.6897 16.5305 11.7539 16.431 11.7844 16.3195L15.4758 3.21323C15.5038 3.11759 15.5055 3.01618 15.4808 2.91964C15.4561 2.8231 15.4059 2.73499 15.3354 2.66452C15.265 2.59406 15.1769 2.54385 15.0803 2.51916C14.9838 2.49446 14.8824 2.49619 14.7867 2.52417V2.52417Z" stroke="#585466" stroke-width="2" stroke-linecap="round" stroke-linejoin="round"/>
<path d="M7.79767 10.2023L10.9758 7.02417" stroke="#585466" stroke-width="2" stroke-linecap="round" stroke-linejoin="round"/>
</g>
<defs>
<clipPath id="clip0_482_37">
<rect width="18" height="18" fill="white"/>
</clipPath>
</defs>
</svg>
