<svg width="24" height="24" viewBox="0 0 24 24" fill="none" xmlns="http://www.w3.org/2000/svg">
<g clip-path="url(#clip0_88_1412)">
<path fill-rule="evenodd" clip-rule="evenodd" d="M4.74375 2.47499L20.5781 11.3437C20.6953 11.4086 20.7931 11.5037 20.8611 11.6191C20.9291 11.7345 20.965 11.866 20.965 12C20.965 12.134 20.9291 12.2655 20.8611 12.3809C20.7931 12.4963 20.6953 12.5914 20.5781 12.6562L4.74375 21.525C4.61037 21.5987 4.45771 21.63 4.30609 21.6147C4.15448 21.5995 4.0111 21.5385 3.89505 21.4397C3.77899 21.341 3.69577 21.2092 3.65646 21.062C3.61715 20.9148 3.62362 20.7591 3.675 20.6156L6.38998 13H11.75C12.3023 13 12.75 12.5523 12.75 12C12.75 11.4477 12.3023 11 11.75 11H6.38999L3.675 3.38436C3.62362 3.24091 3.61715 3.08521 3.65646 2.93799C3.69577 2.79076 3.77899 2.65901 3.89505 2.56026C4.0111 2.46152 4.15448 2.40046 4.30609 2.38523C4.45771 2.36999 4.61037 2.4013 4.74375 2.47499Z" fill="white"/>
</g>
<defs>
<clipPath id="clip0_88_1412">
<rect width="24" height="24" fill="white"/>
</clipPath>
</defs>
</svg>
