<svg width="24" height="24" viewBox="0 0 24 24" fill="none" xmlns="http://www.w3.org/2000/svg">
<g clip-path="url(#clip0_496_16)">
<path d="M6 15C7.65685 15 9 13.6569 9 12C9 10.3431 7.65685 9 6 9C4.34315 9 3 10.3431 3 12C3 13.6569 4.34315 15 6 15Z" stroke="#FFF" stroke-width="2.25" stroke-linecap="round" stroke-linejoin="round"/>
<path d="M16.5 21.75C18.1569 21.75 19.5 20.4069 19.5 18.75C19.5 17.0931 18.1569 15.75 16.5 15.75C14.8431 15.75 13.5 17.0931 13.5 18.75C13.5 20.4069 14.8431 21.75 16.5 21.75Z" stroke="#FFF" stroke-width="2.25" stroke-linecap="round" stroke-linejoin="round"/>
<path d="M16.5 8.25C18.1569 8.25 19.5 6.90685 19.5 5.25C19.5 3.59315 18.1569 2.25 16.5 2.25C14.8431 2.25 13.5 3.59315 13.5 5.25C13.5 6.90685 14.8431 8.25 16.5 8.25Z" stroke="#FFF" stroke-width="2.25" stroke-linecap="round" stroke-linejoin="round"/>
<path d="M13.9781 6.87183L8.52188 10.3781" stroke="#FFF" stroke-width="2.25" stroke-linecap="round" stroke-linejoin="round"/>
<path d="M8.52188 13.6218L13.9781 17.1281" stroke="#FFF" stroke-width="2.25" stroke-linecap="round" stroke-linejoin="round"/>
</g>
<defs>
<clipPath id="clip0_496_16">
<rect width="24" height="24" fill="white"/>
</clipPath>
</defs>
</svg>
