<svg width="18" height="18" viewBox="0 0 18 18" fill="none" xmlns="http://www.w3.org/2000/svg">
<g clip-path="url(#clip0_85_1376)">
<path d="M15.5813 10.5047C15.6979 9.99275 15.7545 9.46891 15.75 8.94381C15.7219 5.22428 12.6422 2.2149 8.92969 2.25006C7.34368 2.26679 5.81421 2.84149 4.60963 3.87333C3.40505 4.90517 2.6023 6.32825 2.34223 7.89289C2.08215 9.45752 2.38137 11.0638 3.18737 12.4298C3.99338 13.7959 5.25469 14.8344 6.75001 15.3633C7.00437 15.455 7.27709 15.4839 7.54501 15.4476C7.81294 15.4113 8.06815 15.311 8.28899 15.155C8.50984 14.999 8.68978 14.7921 8.81357 14.5517C8.93735 14.3113 9.0013 14.0446 9.00001 13.7743V13.5001C8.99908 13.2782 9.04209 13.0583 9.12657 12.8532C9.21104 12.648 9.33531 12.4616 9.49219 12.3047C9.64908 12.1479 9.83547 12.0236 10.0406 11.9391C10.2458 11.8546 10.4656 11.8116 10.6875 11.8126H13.9359C14.3177 11.8128 14.6882 11.6836 14.9871 11.4461C15.2859 11.2085 15.4954 10.8767 15.5813 10.5047V10.5047Z" stroke="#585466" stroke-width="2" stroke-linecap="round" stroke-linejoin="round"/>
<path d="M9 6.46875C9.62132 6.46875 10.125 5.96507 10.125 5.34375C10.125 4.72243 9.62132 4.21875 9 4.21875C8.37868 4.21875 7.875 4.72243 7.875 5.34375C7.875 5.96507 8.37868 6.46875 9 6.46875Z" fill="#585466"/>
<path d="M5.83594 8.29688C6.45726 8.29688 6.96094 7.7932 6.96094 7.17188C6.96094 6.55055 6.45726 6.04688 5.83594 6.04688C5.21462 6.04688 4.71094 6.55055 4.71094 7.17188C4.71094 7.7932 5.21462 8.29688 5.83594 8.29688Z" fill="#585466"/>
<path d="M5.83594 11.9531C6.45726 11.9531 6.96094 11.4494 6.96094 10.8281C6.96094 10.2068 6.45726 9.70312 5.83594 9.70312C5.21462 9.70312 4.71094 10.2068 4.71094 10.8281C4.71094 11.4494 5.21462 11.9531 5.83594 11.9531Z" fill="#585466"/>
<path d="M12.1641 8.29688C12.7854 8.29688 13.2891 7.7932 13.2891 7.17188C13.2891 6.55055 12.7854 6.04688 12.1641 6.04688C11.5427 6.04688 11.0391 6.55055 11.0391 7.17188C11.0391 7.7932 11.5427 8.29688 12.1641 8.29688Z" fill="#585466"/>
</g>
<defs>
<clipPath id="clip0_85_1376">
<rect width="18" height="18" fill="white"/>
</clipPath>
</defs>
</svg>
