<svg width="16" height="16" viewBox="0 0 16 16" fill="none" xmlns="http://www.w3.org/2000/svg">
<path d="M15 8C15 9.92752 14.3102 11.5811 12.9305 12.9609C11.571 14.3203 9.92752 15 8 15C6.05218 15 4.39857 14.3203 3.0391 12.9609C1.6797 11.6014 1 9.94782 1 8C1 6.07248 1.67971 4.42902 3.0391 3.06955C4.41887 1.68985 6.07248 1 8 1C9.90722 1 11.5508 1.68986 12.9305 3.06955C14.3102 4.44925 15 6.09278 15 8ZM2.4609 8C2.4609 9.50143 3.00873 10.8 4.10436 11.8956C5.2 12.9913 6.49857 13.5391 8 13.5391C9.52173 13.5391 10.8203 13.0014 11.8956 11.9261C12.9913 10.8304 13.5391 9.52173 13.5391 8C13.5391 6.45797 13.0014 5.14925 11.9261 4.07391C10.8507 2.99857 9.54203 2.4609 8 2.4609C6.47827 2.4609 5.16955 3.00873 4.07391 4.10436C2.99857 5.1797 2.4609 6.47827 2.4609 8V8ZM8.12173 11.6217C7.08699 11.6217 6.22466 11.2768 5.53481 10.587C4.84496 9.89707 4.5 9.03481 4.5 8C4.5 6.98549 4.84496 6.13331 5.53481 5.44346C6.24496 4.73331 7.10722 4.37827 8.12173 4.37827C9.09564 4.37827 9.97827 4.77391 10.7695 5.56519L9.79564 6.44782C9.32902 5.9609 8.77098 5.71737 8.12173 5.71737C7.51301 5.71737 6.98549 5.9406 6.5391 6.38699C6.11301 6.83331 5.9 7.37098 5.9 8C5.9 8.30436 5.9609 8.59857 6.08263 8.88263C6.20436 9.16669 6.36669 9.41015 6.56955 9.61301C6.77248 9.81594 7.00579 9.97827 7.26955 10.1C7.53331 10.2217 7.81737 10.2826 8.12173 10.2826C8.89278 10.2826 9.50143 9.96812 9.94782 9.3391L10.9826 10.1609C10.2522 11.1348 9.29857 11.6217 8.12173 11.6217V11.6217Z" fill="#2C2A33CC" style="mix-blend-mode:luminosity"/>
</svg>
