<?xml version="1.0" encoding="utf-8"?>
<!-- Generator: Adobe Illustrator 22.0.1, SVG Export Plug-In . SVG Version: 6.00 Build 0)  -->
<svg version="1.1" id="Еда" xmlns="http://www.w3.org/2000/svg" xmlns:xlink="http://www.w3.org/1999/xlink" x="0px" y="0px"
	 viewBox="0 0 1125 2436" style="enable-background:new 0 0 1125 2436;" xml:space="preserve">
<style type="text/css">
	.st0{fill:none;stroke:#000000;stroke-width:4;stroke-linecap:round;stroke-linejoin:round;stroke-miterlimit:10;}
</style>
<g>
	<g>
		<g>
			<path d="M39.9,2431.7c-2,1.1-3.7,2.6-5.2,4.3h5.9c0.4-0.3,0.8-0.6,1.3-0.8c2.3-1.3,5-2,7.8-2c3,0,6.1,0.7,9.3,2.2
				c0.4,0.2,0.8,0.4,1.1,0.6h7.3c-2.2-1.7-4.4-3.1-6.8-4.2C53.3,2428.4,45.9,2428.4,39.9,2431.7z"/>
		</g>
		<g>
			<path d="M50.3,2386.9c-0.6-0.4-1.4-0.5-2.1-0.1l-41.1,23c-0.6,0.3-1,1-1,1.7c0,0.7,0.3,1.4,0.9,1.7l32.7,21.9
				c0.3,0.2,0.7,0.3,1.1,0.3c0.6,0,1.3-0.3,1.7-0.9c0.1-0.2,0.2-0.4,0.3-0.6c0.2,0.1,0.4,0.2,0.7,0.2c1.1,0.1,2.1-0.6,2.2-1.7
				l5.5-43.6C51.3,2388,50.9,2387.3,50.3,2386.9z M41.7,2431.6l-29.8-19.9l34.8-19.5L41.7,2431.6z"/>
		</g>
		<g>
			<path d="M27.9,2413.2c-0.8-0.7-2.1-0.6-2.8,0.2c-0.7,0.8-0.6,2.1,0.2,2.8l8.9,7.8c0.4,0.3,0.9,0.5,1.3,0.5c0.6,0,1.1-0.2,1.5-0.7
				c0.7-0.8,0.6-2.1-0.2-2.8L27.9,2413.2z"/>
		</g>
		<g>
			<path d="M39.6,2407.1c-1.1-0.2-2.1,0.5-2.4,1.6c0,0.2-0.1,0.7-0.3,11.8c0,1.1,0.9,2,2,2c0,0,0,0,0,0c1.1,0,2-0.9,2-2
				c0.1-4.9,0.2-10.4,0.3-11.2C41.3,2408.3,40.6,2407.3,39.6,2407.1z"/>
		</g>
	</g>
</g>
<g>
	<g>
		<g>
			<path d="M1119.4,1242.1c-0.5,0.7-0.6,1.6-0.1,2.4c0.4,0.6,1,0.9,1.7,0.9c0.2,0,0.4,0,0.6-0.1c1.2-0.4,2.3-0.8,3.5-1.2v-10.3
				C1123.4,1236.6,1121.5,1239.4,1119.4,1242.1z"/>
			<path d="M1112.1,1018.2c1,7.3,2,14.8,2.6,22.7c1.7,22.1,5.8,44.3,9.8,65.7c0.2,0.8,0.3,1.7,0.5,2.6v-22.5
				c-2.7-15.2-5-30.7-6.2-46.1c-0.6-8-1.6-15.6-2.6-23c-3.4-25.2-6.4-46.9,8.9-71.6v-7.1C1105.2,967.2,1108.5,991.4,1112.1,1018.2z"
				/>
		</g>
	</g>
	<g>
		<g>
			<path d="M1120.4,1512.8c-2.3-6.9-2.9-16.6,2.5-22.7c0.7-0.8,0.6-2.1-0.2-2.8c-0.8-0.7-2.1-0.6-2.8,0.2
				c-5.6,6.3-6.8,16.3-3.3,26.7c1.8,5.5,4.7,10.4,7.4,15.2c0.3,0.6,0.7,1.2,1,1.8v-8.2C1123.2,1519.6,1121.6,1516.3,1120.4,1512.8z"
				/>
		</g>
	</g>
	<g>
		<g>
			<path d="M1123.6,421.3c-0.2,9.3,0.2,17,1.4,23.3v-33.9C1124.2,414,1123.7,417.5,1123.6,421.3z"/>
		</g>
	</g>
</g>
<g>
	<path class="st0" d="M401.1,2317.7c1.4-17.4,2.1-37.1-10-49.6c-7.5-7.8-18.6-11-29.2-13.5c-39.3-9.3-79.8-13.6-120.2-12.6
		c-20.9,0.6-43.7,3.3-58,18.6c-21.7,23.1-12.3,60.9-23,90.7c-7.1,19.9-38.6,20.5-41,41.3c-0.6,5.5,2.1,6.1,2.2,6
		c16.7,9.3,48.8,4.9,64.7-13c15.9-17.9,21.6-42.6,23.9-66.5c1.2-12.7,3.2-28,14.9-33.3c5.5-2.5,12-2,18.1-1.4
		c22.1,2.2,44.2,4.5,66.3,6.8c15.3,1.6,31.7,3.6,43.1,13.9c17.9,16.3,15.3,44.6,12.4,68.7c-1,8.6-1.8,17.8,2.3,25.5
		c4,7.7,15,12.3,21.7,6.9c4.7-3.8,5.6-10.6,6.1-16.5C397,2365.6,399.1,2341.7,401.1,2317.7z"/>
	<path class="st0" d="M184.1,2387.8c2.7,20.9,32.6,23,53.4,24.9c33.6,2.8,61.4,5.1,95,8c6.5,0.5,19,1.6,25.1-1.1
		c6-2.7,13.5-11.4,11.3-17.5"/>
	<path class="st0" d="M302.7,2254.2c0,0,20.4,2.8,29.3,4.7c16.1,3.5,27.4,6.3,27.4,6.3"/>
	<line class="st0" x1="276.3" y1="2251.7" x2="294.1" y2="2252.9"/>
	<path class="st0" d="M296.6,2317c-9.8-1.9-19.8-3.8-29.7-2.7c-9.9,1-20,5.3-25.6,13.5c-4.5,6.6-5.8,15-6.9,23
		c-1.2,8-2.2,16.7,1,24.1c4.5,10.5,18.8,9.2,29.6,5.3c0,0,12.9,13.5,22.5,16c8.1,2.2,16.2,4.3,23.7,1.2
		c11.2-4.5,16.9-17.9,19.3-29.7c2.6-12.8,2.6-27.7-5.5-37.9C318.4,2321.5,307.1,2319.1,296.6,2317z"/>
	<path class="st0" d="M266.8,2370c-4.9-14.9-0.3-34.2,12.1-39.8"/>
	<path class="st0" d="M294.6,2384.1c3.9,0.9,8.2,0.1,11.5-2.3s5.4-6.3,5.6-10.3"/>
	<path class="st0" d="M280.5,2345c0.7-2.6,2.4-5,4.6-6.4s5.1-2.2,7.7-1.7"/>
	<path class="st0" d="M231.5,2284.1c-4.5-4.8-8.4-13.1-8.5-19.7c-0.1-6.6,2.5-15.6,6.8-20.7"/>
	<path class="st0" d="M210.1,2317.3c-10.8,0.9-21.4-5.1-27.6-14c-6.2-8.8-8.5-18.4-8-29.2"/>
	<path class="st0" d="M198.1,2367.8c-7.5,1.5-15.3,2.7-22.6,0.8c-7.3-1.9-14.9-8.1-15.7-15.7"/>
	<path class="st0" d="M360.1,2314.9c11.8,1.1,23.8-2.3,32.3-10.4c2.8-2.6,5.2-5.7,6.4-9.3c1.2-3.6,2.9-7.5,0.9-10.7"/>
	<path class="st0" d="M366.4,2358.7c0,0,7.8,8.2,13.3,9.9c5.5,1.7,15.8-4.5,15.8-4.5"/>
</g>
<g>
	<path class="st0" d="M865.3,576.8c-12.4,3.8-22.8,12.3-31.9,21.6c-9.1,9.3-17.1,19.6-26.8,28.2s-21.4,15.7-34.3,17l-4.5-1.5
		c-9.9-3.9-13.2-0.5-15.8,9.7c-1.3,5.1-1.6,15.3,6.7,19.7c4.9,2.6,10.6-4.4,14.3-6.2c10.6-5.1,22.4-7.7,34.1-7.5
		c19.4,0.3,38.7,8.1,57.6,4.2c12.8-2.7,24.2-10.5,32.8-20.5c7-8.1,12.3-17.9,13.7-28.5c1.4-10.6-1.7-22-9.4-29.4
		C892.4,574.6,877.7,573,865.3,576.8z"/>
	<path class="st0" d="M809.2,634.4c3.4-3.2,6.9-6.4,10.3-9.6"/>
	<path class="st0" d="M813.5,642.4c3.8-1,10-3,13.8-4"/>
	<path class="st0" d="M815.3,650.3c4.2,2.1,9.1,2.6,13.9,1.9"/>
	<line class="st0" x1="823.8" y1="619.7" x2="825.4" y2="617.8"/>
	<path class="st0" d="M761.4,652.2c2.5-0.8,5.4-0.2,7.4,1.3"/>
	<line class="st0" x1="834.4" y1="636.1" x2="841.2" y2="633.6"/>
	<line class="st0" x1="862.3" y1="614.6" x2="862.3" y2="614.6"/>
	<line class="st0" x1="869.6" y1="599" x2="869.6" y2="599"/>
	<line class="st0" x1="881.7" y1="621.9" x2="881.7" y2="621.9"/>
	<line class="st0" x1="892.4" y1="617.1" x2="892.4" y2="617.1"/>
	<line class="st0" x1="876.9" y1="636.6" x2="876.9" y2="636.6"/>
	<line class="st0" x1="853.5" y1="595" x2="853.5" y2="595"/>
	<line class="st0" x1="887" y1="600.7" x2="887" y2="600.7"/>
	<line class="st0" x1="877.4" y1="589.1" x2="877.4" y2="589.1"/>
</g>
<path class="st0" d="M560.3,391.8c-23.4,1.1-39,32.5-39,32.5c-20,7.5-36.8,26.3-31,46.8c4.3,15.3,16.7,27.1,30.4,35.2
	c15.4,9.2,33.1,14.7,51,14c17.9-0.7,35.7-8.1,47.5-21.5c17.2-19.4,19.3-50,6.3-72.4C612.6,404,586.2,390.7,560.3,391.8z"/>
<path class="st0" d="M536,423.8c6.7,1.2,13.5,2.5,19.6,5.6s11.3,8.5,12.7,15.2"/>
<path class="st0" d="M528.8,411c-1.2-3.7-2.5-7.4-4-11c-1.6-3.7-7-3.1-7.8,0.8c-0.6,2.9-1.3,5.8-2,8.7c-3,0-6.1-0.2-9.1-0.5
	c-3.5-0.4-5.8,3.4-3.9,6.4c0,0,0,0.1,0.1,0.1c1.6,2.5,2.9,5.2,3.9,8c-9.2-0.2-18.4,1.8-26.7,5.8c-3.2,1.5-3.2,6,0,7.5
	c5.4,2.5,11.1,4.6,16.9,6.2"/>
<path class="st0" d="M505.7,459.1c0.2,2.1-0.2-1.8,0,0.4"/>
<path class="st0" d="M508.5,468.4c0.2,2.1-0.2-1.8,0,0.4"/>
<path class="st0" d="M513.7,459.8c0.2,1.8,0,0,0.2,1.8"/>
<g>
	<path class="st0" d="M166.8,707.3c-14-16.2-33.9-27.7-55.3-29.3s-43.7,7.7-55.9,25.3c-12.2,17.6-10.8,49.6-3.9,65.3
		c6.9,15.7,24.8,38.4,39.7,50.7c14.8,12.3,30.6,17.5,49.9,18.1c19.3,0.5,39.5-8.7,48.6-25.7c7.6-14.1,6.9-31.1,3.7-46.8
		C189.4,743.9,180.9,723.4,166.8,707.3z"/>
	<path class="st0" d="M127,727c3.2,8.9,12.5,22.6,20.4,27.7c2.4,1.5,5.3,2.7,8,1.9c3.9-1.1,5.7-5.9,4.9-9.9s-3.2-7.1-3.2-7.1"/>
	<path class="st0" d="M95.3,678.9c-3.3,1.4-5.8,4.2-8.4,6.6c-2.6,2.5-4.5,6-4.3,9.6s2.9,7.2,6.5,7.6c1.4,0.2,2.9-0.1,4.3,0
		s3,0.8,3.4,2.2c0.6,1.9-1.3,3.6-2.8,4.8c-4.1,3.3-7.5,7.9-8,13.1c-0.5,5.2,2.7,11,7.9,12.1c3,0.6,6.1-0.4,9.2-1
		c3-0.6,6.5-0.7,8.9,1.3c3.1,2.7,2.6,7.7,1,11.5s-4,7.5-3.9,11.6c0.1,4.8,3.7,9.1,8.1,11s9.5,1.9,14.2,1.2
		c-1.4,4.2-2.7,8.5-2.9,12.9s1,9.1,4.1,12.2c3.9,3.9,10.1,4.8,15.4,3.5s10.1-4.3,14.8-7.2c-1.1,4.1,0.6,8.8,4.1,11.3s8.5,2.5,12,0.1
		c2.8-1.9,4.4-5,6.7-7.5s5.8-4.5,8.9-3.2"/>
	<line class="st0" x1="114.4" y1="690.8" x2="121.1" y2="693.7"/>
	<line class="st0" x1="175" y1="778.1" x2="175" y2="774.8"/>
	<line class="st0" x1="110.6" y1="709.3" x2="114.4" y2="709.3"/>
	<line class="st0" x1="177.8" y1="757.6" x2="179.6" y2="752.7"/>
	<line class="st0" x1="149.4" y1="778.1" x2="151.4" y2="774.8"/>
	<line class="st0" x1="162.1" y1="718.3" x2="165.2" y2="726.4"/>
	<line class="st0" x1="135" y1="699.3" x2="140.8" y2="702.9"/>
	<line class="st0" x1="143.7" y1="711.5" x2="147.5" y2="714.6"/>
	<path class="st0" d="M79.7,790.9c7.9,9.1,17.4,16.8,27.9,22.8"/>
	<path class="st0" d="M64.8,766.7c0.9,4.8,2.9,9.3,5.9,13.1"/>
</g>
<g>
	<g>
		<path d="M1059.8,2021.2c-35,6.8-63.1,5.7-69.8,5.3l-22.8-116.7c9-0.1,41.4-1,77.9-8.2c35.9-7,61.2-17.1,68.8-20.4l11.2,57.3v-20.8
			l-7.7-39.6c-0.1-0.6-0.5-1.1-1.1-1.4c-0.5-0.3-1.2-0.3-1.8,0c-0.3,0.1-27.7,12.8-70.2,21.1c-42.4,8.4-79.2,8.1-79.5,8.1
			c-0.6,0-1.2,0.3-1.6,0.7c-0.4,0.5-0.5,1.1-0.4,1.7l23.6,120.6c0.2,0.9,0.9,1.5,1.8,1.6c0.1,0,5.2,0.4,13.7,0.4
			c13,0,34.2-1,58.6-5.7c25.3-4.9,49.6-13.1,64.5-18.6v-4.3C1110.5,2007.7,1085.6,2016.1,1059.8,2021.2z"/>
	</g>
	<g>
		<path d="M1113.4,1938.4c-0.2-1.1-1.3-1.8-2.3-1.6c-1.1,0.2-1.8,1.3-1.6,2.3l10,51.2c0.2,1,1,1.6,2,1.6c0.1,0,0.3,0,0.4,0
			c1.1-0.2,1.8-1.3,1.6-2.3L1113.4,1938.4z"/>
	</g>
	<g>
		<path d="M1108.7,1914.4c-0.2-1.1-1.3-1.8-2.3-1.6c-1.1,0.2-1.8,1.3-1.6,2.3l2.6,13.5c0.2,1,1,1.6,2,1.6c0.1,0,0.3,0,0.4,0
			c1.1-0.2,1.8-1.3,1.6-2.3L1108.7,1914.4z"/>
	</g>
	<g>
		<path d="M935.9,1806.5c-6.4,2-11.2,6.5-12.5,11.9c-1.6,6.4,2.3,14.1,6.8,17.5c0.4,0.3,0.8,0.4,1.2,0.4c0.6,0,1.2-0.3,1.6-0.8
			c0.7-0.9,0.5-2.1-0.4-2.8c-3.5-2.6-6.5-8.8-5.3-13.3c1.2-4.8,5.9-7.8,9.9-9.1c4.1-1.4,9.2,0,12.7,3.4c0.8,0.8,2.1,0.8,2.8,0
			c0.8-0.8,0.8-2.1,0-2.8C948.2,1806.4,941.4,1804.6,935.9,1806.5z"/>
	</g>
	<g>
		<path d="M1097.2,1797.8c-11.1-2-19.5,3.7-29.3,11.4c-9.8,7.9-27.1,19.3-46.2,27.6c-19.7,8.6-30.5,10-37.5,4.7
			c-2.9-2.2-3.1-8.9-3.4-16c-0.4-10.5-1-23.6-9.8-31.9c-4.5-4.2-11.6-3.8-16.7-1.9c-3.3,1.2-6,4.3-7.1,8.5c-0.8,3.4-0.7,6.8-0.4,10
			c0.1,1.1,1,2,2.1,1.9c1.1-0.1,1.9-1,1.9-2.1c-0.2-2.9-0.3-6,0.3-8.8c0.8-2.8,2.5-4.9,4.6-5.7c1.4-0.5,8.5-2.8,12.6,1.1
			c7.6,7.1,8.1,18.8,8.5,29.1c0.3,8.4,0.6,15.7,5,19c9.6,7.4,23.6,3.7,41.5-4.2c19.4-8.5,37-20.1,47.1-28.1
			c9.3-7.3,16.6-12.3,26.1-10.6c9.6,1.8,17.9,9.2,20.6,18.5c2.2,7.6,1,16.4-3.4,24.2c-3.7,6.7-9.5,13.1-17.3,19
			c-23,17.1-40.1,26.8-64.7,29.2c-12.9,1.3-22.4-0.9-33.9-7.8c-5.5-3.3-11.9-9.7-17.6-15.4c-5-5.1-9.4-9.5-12.7-11.3
			c-5.6-3.1-10.4,0.7-14.2,3.7c-2,1.5-3.8,3-5.6,3.7c-6.2,2.3-12.3,2.3-17.1,0.1c-9.4-4.5-12.5-11.5-9.5-21.6c1.2-4.2,4.1-6,6.3-6.8
			c3.5-1.3,7.4-0.8,9.1,0.3c0.9,0.6,2.2,0.4,2.8-0.5c0.6-0.9,0.4-2.2-0.5-2.8c-3-2-8.4-2.4-12.7-0.8c-4.4,1.6-7.5,5-8.8,9.4
			c-3.5,11.9,0.5,21,11.7,26.3c5.8,2.7,12.9,2.7,20.2,0.1c2.4-0.9,4.6-2.6,6.7-4.3c4.1-3.2,6.7-5.1,9.8-3.4c2.8,1.6,7.2,6,11.8,10.6
			c5.8,5.9,12.4,12.5,18.3,16c10.1,6,19,8.7,29.5,8.7c2.2,0,4.5-0.1,6.8-0.3c28.1-2.7,46.9-15.1,66.8-30c8.3-6.2,14.4-13,18.4-20.2
			c4.8-8.8,6.2-18.7,3.7-27.3C1117.8,1808.4,1108.3,1799.8,1097.2,1797.8z"/>
	</g>
	<g>
		<path d="M1005.2,1890l-1.8,0.3c-6.5,1.1-13.2,2.2-19.6,4.2c-8.2,2.6-14.6,6-19.6,10.5c-0.8,0.7-0.9,2-0.2,2.8
			c0.4,0.4,0.9,0.7,1.5,0.7c0.5,0,1-0.2,1.3-0.5c4.6-4.1,10.5-7.3,18.2-9.7c6.2-1.9,12.8-3,19.1-4.1l1.8-0.3
			c1.1-0.2,1.8-1.2,1.6-2.3C1007.4,1890.6,1006.3,1889.8,1005.2,1890z"/>
	</g>
	<g>
		<path d="M1116.1,1875.4c-8.4-3.6-15.6-2.7-24.7-1.6c-2.9,0.4-5.9,0.7-9.3,1c-1.1,0.1-1.9,1-1.8,2.1c0.1,1.1,1,1.9,2.1,1.8
			c3.4-0.3,6.5-0.6,9.4-1c8.8-1.1,15.2-1.8,22.6,1.3c0.3,0.1,0.5,0.2,0.8,0.2c0.8,0,1.5-0.5,1.8-1.2
			C1117.5,1877,1117.1,1875.9,1116.1,1875.4z"/>
	</g>
	<g>
		<path d="M1072.5,1818c-11.4,10.6-25.2,19-39.7,24.1c-1,0.4-1.6,1.5-1.2,2.6c0.3,0.8,1.1,1.3,1.9,1.3c0.2,0,0.4,0,0.7-0.1
			c15.1-5.3,29.3-13.9,41.1-24.9c0.8-0.8,0.9-2,0.1-2.8C1074.6,1817.3,1073.4,1817.2,1072.5,1818z"/>
	</g>
	<g>
		<path d="M1023.8,1845.9c-1.6,0.4-3.2,0.8-4.8,1.1c-1.6,0.4-3.2,0.8-4.8,1.1c-1.1,0.2-1.8,1.3-1.5,2.4c0.2,0.9,1,1.6,1.9,1.6
			c0.1,0,0.3,0,0.4,0c1.6-0.4,3.2-0.8,4.8-1.1c1.6-0.4,3.1-0.8,4.7-1.1c1.1-0.2,1.8-1.3,1.5-2.4
			C1026,1846.4,1024.9,1845.7,1023.8,1845.9z"/>
	</g>
</g>
<g>
	<path class="st0" d="M752.2,741.9c-31.1-27-74.1-48.2-115.1-52.4c-4.1,1.3-8.6,4.8-12.6,8.6c-3.2,2.9-2.4,7.4-3.4,11.6
		c-34.1,41.9-68.1,81.8-102,123.7c-6.8,8.3-13.8,17.5-13.6,28.2c0,3.9,2.2,8.6,6.1,8.7c1.4,0,2.7-0.6,4-1.2
		c10.5-5,103.4-59.5,107.1-61.5c9.4-4.9,19.4-8.8,29.3-12.6c32.3-12.5,64.5-25.2,98.2-33.1c0.1-0.1,0.3-0.9,0.2-0.6
		C752.3,754.9,753.1,748.5,752.2,741.9z"/>
	<path class="st0" d="M637.6,700.6c18,1.4,35.7,6.9,51.4,15.8"/>
	<path class="st0" d="M696.1,720.4c3.7,2.2,7.5,4.5,11.2,6.7"/>
	<path class="st0" d="M512,855.8c4.7,1.7,10.3,0.6,14-2.7"/>
	<path class="st0" d="M622.7,728c-8,6.1-8.6,17.5-5.1,20.5c7,6.1,16.8,3.4,26.1-7.3c5-5.8,1.8-14.5-0.9-17.2
		C639.2,720.3,628.6,723.4,622.7,728z"/>
	<path class="st0" d="M557.3,803.5c-5.7,4.4-6.1,12.5-3.6,14.6c5,4.3,12,2.4,18.6-5.2c3.6-4.2,1.3-10.4-0.6-12.3
		C569.2,798,561.7,800.2,557.3,803.5z"/>
	<path class="st0" d="M623.8,770.1c-2.2-1-5.2-1.7-7.2-0.2s-3.1,5.3-1.1,6.7c-5.3,1.6-10.5,3.3-15.8,4.9c0,0.1,2.1,8.8,4.2,12.6
		c4.1-1.3,15-6.5,15.6-6c0.7,0.5-0.2,2.3,0.4,3.1c1.3,1.8,3.7,1.9,5.6,0.7c4-2.3,6.4-7.2,5.8-11.8
		C630.7,775.5,629,772.4,623.8,770.1z"/>
	<path class="st0" d="M678.3,735.7c-3.7,1.1-4.7,4.3-6.8,8.6c-3.5-2.8-10.7-2.3-13.2,1.6c-2.5,3.9-2,9.8,0,13.8
		c2,4.2,5.3,6.8,9.2,8.2c3.4,1.3,12.2,1.3,17-1.1c4.6-2.1,8.1-8.5,8.6-13.4c0.4-4-0.9-10.3-3.1-13.6
		C687.8,736.5,682.1,734.6,678.3,735.7z"/>
	<line class="st0" x1="677.2" y1="746.7" x2="678.2" y2="745.8"/>
	<line class="st0" x1="670.3" y1="749.7" x2="668.7" y2="749.7"/>
	<line class="st0" x1="680.2" y1="749.9" x2="680.5" y2="749.4"/>
	<line class="st0" x1="671.5" y1="754" x2="670.9" y2="754"/>
</g>
<g>
	<path class="st0" d="M865.2,895.9c5.4-0.5,8.4,7,9.7,12.3s-1.9,11.2-6.9,13.2c-6.1,2.4-13.7-0.6-19.1,3.1
		c-5.5,3.8-5.1,11.9-3.8,18.5c1.4,6.5,2.8,14.2-1.7,19.2c-4.5,4.9-12.2,4.2-18.8,3.4s-16.9-2-20.3,3.7c-2.4,4,0.8,10.5,2.6,14.8
		s4,6.7,4.7,11.3c0.8,5.6,2.2,8.1-2.4,13.4c-3.7,4.2-13.6,8.2-18.9,6.4c-3.9-1.3-7.2-4.1-11.1-5.5c-3.9-1.4-9.1-0.9-11,2.7
		c-2,3.8,1.9,8.1,4.2,11.8c2.3,3.7,8.3,8.4,5.1,11.3"/>
	<path class="st0" d="M793.5,1048.9c-3.8,3.9-5,5.2-10.2,6.8c-8.4,2.6-18.5-3.2-20.5-11.8c-2.2-9.4,4.2-18.5,10.2-26.1
		c32.1-40.6,96.6-119.1,96.6-119.1c4.1-4.2,4.9-6.2,7.9-10.2c3.1-4,13.4-7.8,17.8-5.3c10.2,5.8,9.5,12.1,8.7,17.2"/>
	<path class="st0" d="M765.4,1064.6c3.3,5.8,10.8,8.9,17.2,7.2c6.5-1.7,13.3-8.9,11.7-15.4c-2.4-9.8-0.1-19.8,5.5-28.2
		c26.3-40.1,56.8-79.4,84.6-118.4c2.8-3.9,5.8-8,10.3-9.6c6.9-2.4,14.2,1.9,19.5,6.9c19.3,18.3,20.5,43.4,8.5,67.1
		c-10,19.6-26.2,43.4-38.5,60.1c-18.6,25.1-27.9,46-62.8,64.8c-24,12.9-42.3,2.4-57.5-3c-15.1-5.3-33.9-35.7-31.5-56.3
		c2.4-20.6,10.5-36,23.1-52.4c24.3-31.8,47.1-63.6,76.8-91c8-7.4,19.1-18.8,29.7-16.1c10.8,2.8,10.1,7.4,12.2,10.9"/>
	<path class="st0" d="M810.4,1056.4c-3.7-5.2-4.2-12.5-1.1-18"/>
	<path class="st0" d="M814.3,1031.5c25.2-32.7,48-67.3,68.2-103.3"/>
	<line class="st0" x1="836.2" y1="1035.8" x2="838.8" y2="1042.4"/>
	<line class="st0" x1="854.5" y1="1010.2" x2="857" y2="1016.4"/>
	<line class="st0" x1="870.7" y1="984.3" x2="872.8" y2="989.7"/>
	<line class="st0" x1="883.4" y1="966.1" x2="885.4" y2="971.3"/>
	<line class="st0" x1="854.1" y1="1032.6" x2="856.8" y2="1039.4"/>
	<line class="st0" x1="870.8" y1="1005.2" x2="872.8" y2="1010.2"/>
	<line class="st0" x1="883.5" y1="985.5" x2="886" y2="991.8"/>
	<path class="st0" d="M774.4,1049.8c-1.3-1.8-2.3-3.9-2.9-6.1"/>
	<path class="st0" d="M770.2,1047.8c1.8-0.5,3.5-1,5.3-1.5"/>
</g>
<g>
	<path class="st0" d="M153.6,1730.6c-20.1-14.9-30.7-16.8-49-12c-8.4,2.2-31.1,18.4-32,46.4c-0.3,11.5,0.3,25.9,5.3,34.7
		c4,7,15.4,18,29.2,18.9c16.1,1,24.5-7.5,36.2-14.9C158.5,1794,189.1,1756.9,153.6,1730.6z"/>
	<path class="st0" d="M107.2,1725.8c-9.3,3.5-16.7,11.6-19.4,21.2"/>
	<path class="st0" d="M86.2,1753.5c-1.5,3.9-2.4,8.1-2.7,12.3"/>
	<path class="st0" d="M134.5,1729.6c3.8,5.6,9.5,10,16,12.2"/>
	<path class="st0" d="M141.2,1736.4c9.9-12.7,26.3-20,42.3-18.8"/>
</g>
<g>
	<path class="st0" d="M458.8,1781.4C458.8,1781.4,458.8,1781.5,458.8,1781.4C458.9,1781.5,458.9,1781.5,458.8,1781.4z"/>
	<path class="st0" d="M655.2,1563.7c-6.9-10.3-11.3-23.5-7.1-35.2c-6.8-4.4-13.6-8.8-20.4-13.1c-2.7,6.4-5.4,12.8-8.1,19.2
		c16.7,19.9,25.5,35.9,23,61.8c0,0-20.1,92.1-55.3,118.2s-58.1,43.6-114.5,38.6l-5.4,1.6c-2.4,1.1-11.7-2.2-13.1-4.4
		c-3.6,4.8-7.3,9.7-10.9,14.5c5.1,5.5,14.7,16,15.4,16.6c0,0,0-0.1,0-0.1c0.1,0.1,0.1,0.1,0,0.1c1.8,17.1,29.7,32.9,46.6,36.3
		c16.8,3.3,101.6,17.7,167.8-79.7c12.5-18.4,24.4-61.8,26-84s-7.8-43.1-20.6-61.4C671.5,1582.5,662.2,1574,655.2,1563.7z"/>
	<path class="st0" d="M587.4,1727.4c18.4-15.8,33.6-35.1,44.7-56.6"/>
	<path class="st0" d="M558.8,1745.7c7.3-4.1,14.5-8.1,21.8-12.2"/>
</g>
<g>
	<path class="st0" d="M786.9,1560.1c-11.1-3-23.3-5.3-31-13.8c-5.9-6.5-8-15.5-12.2-23.3c-3.2-6-9.4-11.9-16-10.1
		c-4.7,1.2-7.6,6.1-9.1,10.8c-4.2,13.5,5.7,31.8,10.3,39c4.6,7.2,13.3,26.1,15,38.5c1.7,12.4,2.5,25,7,36.6
		c4.5,11.6,13.8,22.3,26.1,24.3c6.7,1.1,13.5-0.5,20.1-2.2c15.8-4.2,32.6-10.8,40.8-25c8.7-15.2,4.6-35.4-6.4-48.9
		C820.4,1572.5,803.8,1564.7,786.9,1560.1z"/>
	<path class="st0" d="M806,1645.5c3.1-3.2,8.1-4.4,12.4-3c-0.3,0.4-0.6,0.7-0.9,1.1"/>
	<path class="st0" d="M766.5,1648.9c-8-7.7-12.6-18.9-12-30"/>
	<path class="st0" d="M725.1,1539.6c-1.6-4.2-2.1-8.8-1.5-13.3"/>
	<path class="st0" d="M727.4,1513.1c-2-17.4,0.4-35.3,6.7-51.7"/>
	<line class="st0" x1="786.9" y1="1594.2" x2="790.9" y2="1597.8"/>
	<line class="st0" x1="798.5" y1="1581.2" x2="801.7" y2="1584"/>
	<line class="st0" x1="797.4" y1="1590.5" x2="801.8" y2="1594.5"/>
	<line class="st0" x1="796.3" y1="1609.2" x2="801.4" y2="1613.8"/>
	<line class="st0" x1="814" y1="1596" x2="817.9" y2="1599.6"/>
	<line class="st0" x1="808.3" y1="1604.5" x2="811.2" y2="1607.1"/>
</g>
<g>
	<path class="st0" d="M245,572.9c7.7,21.7,15.4,43.5,23.1,65.2c2.2,6.3,5.2,13.4,11.5,15.6c5.4,1.9,11.6-0.7,15.6-4.8
		c4-4.2,6.2-9.6,8.3-15c8.1-20.3,16.2-40.5,24.3-60.8c4.3-10.9,8.8-22.1,8.5-33.9c-0.2-11.7-6.3-24.1-17.4-28.2
		c-3,28.2-11.8,55.8-25.6,80.6c-3.6-13,1.6-26.5,3.5-39.9c1.9-13.3-1.8-30-14.6-34c-13.1-4-25.2,7.7-33.9,18.3"/>
	<path class="st0" d="M354.2,404.5c28.6-24.9,27.6-20.9,57.9-31.5s64.1-22.4,78.8-51c3.5-6.7,6.1-14.7,12.7-18.5
		c9.4-5.5,22.5,1.7,25.8,12c3.3,10.4-1.2,21.9-8.3,30.1s-16.6,14-25.6,20.2c-31.3,21.7-57.3,50.8-75.4,84.3
		c-7.7,14.2-14.1,29.5-25.2,41.3c-11,11.8-28.4,19.6-43.5,14c-21.4-7.8-27.4-28.9-23.7-51.3"/>
	<path class="st0" d="M252.7,355.3c5.4-29,10.8-58,16.2-87c2.4-12.6,7.6-28,20.4-29.3c11.6-1.1,20.3,11.7,20.2,23.3
		c-0.1,11.6-6,22.3-10.1,33.2c-4.1,10.9-6.2,24,0.5,33.5"/>
	<path class="st0" d="M185.9,504.5c16.9-61.8,60.9-115.6,118.1-144.3"/>
	<path class="st0" d="M185.9,637.9c25.3,22.5,70.5,47.6,103.9,41.7c22.6-4,40.5-21.3,54.4-39.6c34.8-45.8,56.4-96.8,55.5-154.3"/>
	<path class="st0" d="M234.2,669.2c-27.1,8.1-53.7,12.6-77.7-2.4c-111.1-69.8-54.1-156-29.8-194.3c26.4-41.7,56.3-68,93.1-94.4
		s78.6-44.9,120.2-62.8c19.4-8.3,39.4-31.2,56.4-43.6c14,6.8,22.2,23.7,18.9,38.9c-3.3,15.2-17.8,27.2-33.3,27.6
		c9.2,11.4,18.5,23.4,25.7,36.3"/>
	<line class="st0" x1="368.8" y1="471.4" x2="372.7" y2="471.4"/>
	<line class="st0" x1="354.6" y1="480.2" x2="360.4" y2="480.2"/>
	<line class="st0" x1="368.8" y1="488.3" x2="375" y2="488.3"/>
	<line class="st0" x1="113.5" y1="595.5" x2="111.7" y2="587.8"/>
	<line class="st0" x1="139.3" y1="585" x2="137.8" y2="574"/>
	<line class="st0" x1="122.1" y1="555.4" x2="122.1" y2="565.8"/>
	<line class="st0" x1="212.9" y1="595.4" x2="216.7" y2="604.2"/>
	<line class="st0" x1="227.9" y1="599.2" x2="233.5" y2="607.8"/>
	<path class="st0" d="M202.5,615.4"/>
	<line class="st0" x1="202.5" y1="615.4" x2="207.7" y2="623.6"/>
	<line class="st0" x1="384.2" y1="297.1" x2="394.9" y2="282.6"/>
</g>
<g>
	<path class="st0" d="M515,2212.9c-8.7,11.8-17.7,24-21.2,38.2s-0.2,31.2,11.7,39.8c10.5,7.5,25.6,6.7,36.5-0.2s17.9-18.9,20.9-31.4
		c3-12.6,1.1-28.3-0.5-41.1"/>
	<path class="st0" d="M561.3,2161c-20.5-8-45.6-8.3-62.5,5.8c-3.9,3.3-7.3,7.4-8.6,12.3c-2.1,8,1.9,16.6,8,22.2
		c6.1,5.6,13.9,8.8,21.6,11.9c-0.2,0,21.6,5.6,39.9,5.1c9.3-0.2,19.5-1.9,25.7-8.9c7.1-7.9,6.6-20.7,1-29.7S571.2,2164.8,561.3,2161
		z"/>
	<path class="st0" d="M499.7,2185.7c1.4-10.5,10.4-19.5,20.9-21"/>
	<path class="st0" d="M494.5,2272.9c2-7.7,6.1-14.9,11.8-20.5c-1.4,7.6-2.7,15.2-4.1,22.9c2.9-2.7,5.8-5.5,8.7-8.2
		c0.9-0.8,2-1.7,3.2-1.4c1.2,0.4,1.6,1.9,1.8,3.2c0.7,5,1.3,10,2,15c2.3-2.6,4.6-5.3,6.9-7.9c0.7-0.9,1.6-1.8,2.8-1.9
		c1.9-0.2,3.2,2.1,3.2,4.1c0,2.1-0.7,4.1-0.6,6.2c0.1,2.1,1.7,4.3,3.7,4.1c1-0.1,1.9-0.9,2.7-1.6c5.2-5,9.6-10.8,13.1-17.1
		c1.4,4.3,1.5,9.1,0.2,13.4"/>
	<path class="st0" d="M526.7,2163.3c1.9-0.3,3.7-0.6,5.6-0.9"/>
</g>
<g>
	<g>
		<path d="M36.3,1201.2c6.2-21.7,3.1-44.8,0.1-60.2c-1.4-7.6-3.2-15.2-4.9-22.6c-2.7-11.8-5.5-23.9-7-36
			c-7.1-56.6-9.7-119.3,49.2-149.9c-0.3,11.1-7,20.7-14,30.8c-4.3,6.3-8.8,12.7-11.8,19.7c-9.3,21.9-2.5,46.8,4.9,63.8
			c3.6,8.2,7.8,16.2,11.9,24c5.7,10.9,11.6,22.1,15.7,33.8c3.8,11,10.8,38.9-4.7,59.7c-0.5,0.7-0.5,1.7,0,2.4s1.5,1,2.3,0.6
			c17.4-6.9,25-27.9,23.7-44.9c-0.7-8.8-6-27.3-11.6-47c-5.3-18.6-10.8-37.8-11.5-46.2c-2.3-28.1,10.4-51.5,32.1-59.6
			c1-0.4,1.6-1.5,1.2-2.6c-0.4-1-1.5-1.6-2.6-1.2c-23.5,8.7-37.1,33.7-34.7,63.6c0.7,8.8,6,27.3,11.6,47
			c5.3,18.6,10.8,37.8,11.5,46.2c1.1,13.2-3.7,28.8-14.5,37.1c7.8-15.2,8.3-35.3,1-56.5c-4.1-12-10.1-23.3-15.9-34.3
			c-4.1-7.7-8.2-15.7-11.7-23.7c-7.1-16.3-13.7-40.1-4.9-60.6c2.8-6.6,7.2-12.9,11.4-19c7.7-11.1,15.7-22.6,14.6-36.4
			c-0.1-0.7-0.4-1.3-1-1.6c-0.6-0.3-1.3-0.4-1.9-0.1c-29.1,14.1-46.8,36.6-54.1,68.7c-6.2,27.6-3.8,58-0.1,86.6
			c1.6,12.3,4.4,24.5,7.1,36.4c1.7,7.3,3.4,14.9,4.8,22.4c2.8,15.1,5.9,37.5-0.1,58.4c-5.1,17.9-16.7,32.3-31,39
			c9.2-14.3,12-30.6,12.7-42.4c1-17-1.4-34.1-3.8-50.5c-1.9-13.5-4.5-27.1-6.9-40.3c-1.2-6.3-2.3-12.7-3.5-19.2v22.5
			c2.3,12.3,4.6,25,6.4,37.6c2.3,16.3,4.8,33.1,3.8,49.7c-0.6,10.4-3,24.5-10.2,37.3v10.3C16.8,1237.6,30.5,1221.5,36.3,1201.2z"/>
		<path d="M36.4,907.5c29.8-18.6,60-29.6,86.7-39.4c42.2-15.5,78.7-28.8,101.4-65.4c27.4-44.1,82.3-61.1,136.3-74.6
			c19.1-4.9,38.3-9.7,57.4-14.5c19.1-4.8,38.3-9.7,57.4-14.5c5.6-1.4,10.6-2.5,15.3-1.2c8.7,2.5,12.8,12.9,11.9,21.6
			c-1.1,9.5-6.7,18.2-11.7,25.8c-4.8,7.5-9.7,15-14.6,22.4c-4.9,7.5-9.8,15-14.6,22.5c-0.6,0.9-0.3,2.2,0.6,2.8
			c0.9,0.6,2.2,0.3,2.8-0.6c4.8-7.5,9.7-15,14.6-22.4c4.9-7.5,9.8-15,14.6-22.5c5.2-8,11.1-17.1,12.3-27.6
			c1.2-10.3-4-22.8-14.7-25.8c-5.6-1.6-11.4-0.3-17.3,1.2c-19.1,4.9-38.3,9.7-57.4,14.5c-19.1,4.8-38.3,9.7-57.4,14.5
			c-54.7,13.8-110.5,31-138.7,76.4c-22,35.4-57.8,48.6-99.4,63.8c-26.9,9.8-57.3,21-87.5,39.8c-0.1,0-0.1,0.1-0.2,0.1
			c-15.6,12.4-26.5,23.8-34,34.6v7.1C7.3,934.2,18.8,921.6,36.4,907.5z"/>
	</g>
	<g>
		<path d="M401.2,875.2c-12.5,13.7-25,24.4-38.2,32.9c-34.8,22.2-87.8,29.5-121.7,0.6c-3.3-2.8-6.5-6-9.5-9.1
			c-7-7.1-14.3-14.5-23.8-18.3c-8.5-3.5-19.6-1.9-26.9,3.7c-5.2,4-7.7,9.4-7,15.3c0.1,1.1,1.1,1.9,2.2,1.7c1.1-0.1,1.9-1.1,1.7-2.2
			c-0.7-5.7,2.6-9.5,5.4-11.7c6.2-4.7,15.9-6,23-3.1c8.8,3.5,15.4,10.2,22.5,17.4c3.1,3.2,6.3,6.4,9.8,9.4
			c15.4,13.2,35.5,20.1,58.3,20.1c1.2,0,2.5,0,3.8-0.1c22.2-0.7,45.1-7.9,64.4-20.2c13.5-8.7,26.3-19.6,39-33.5
			c0.7-0.8,0.7-2.1-0.1-2.8C403.2,874.4,401.9,874.4,401.2,875.2z"/>
	</g>
	<g>
		<path d="M442,704.1c-29.2-19.7-77.6-28-112.4-19.2c-35.5,8.9-53.3,43-69,73c-0.5,1-0.1,2.2,0.8,2.7c0.3,0.2,0.6,0.2,0.9,0.2
			c0.7,0,1.4-0.4,1.8-1.1c15.3-29.3,32.7-62.5,66.4-71c33.9-8.5,80.8-0.5,109.2,18.6c0.9,0.6,2.2,0.4,2.8-0.5
			C443.1,706,442.9,704.7,442,704.1z"/>
	</g>
	<g>
		<path d="M467.8,743.5c-1-0.4-2.2,0.2-2.5,1.3c-4.9,14.4-5.4,29.9-5.9,44.9c-0.1,3.1-0.2,6.2-0.3,9.3c-0.7,15.8-2.9,35.7-14.2,50.2
			c-13.9,18.1-37.9,24.4-63.4,29.8c-27.9,5.8-59.2,12.3-89.3,8.2c54.6-26.2,105.3-63.4,146.9-107.7c0.8-0.8,0.7-2.1-0.1-2.8
			c-0.8-0.8-2.1-0.7-2.8,0.1C393.4,822.1,341,860,284.6,886.2c-0.8,0.4-1.3,1.2-1.1,2.1c0.1,0.9,0.8,1.6,1.6,1.7
			c8.9,1.7,17.9,2.4,26.9,2.4c24.1,0,48.3-5,70.3-9.6c26.3-5.5,51.1-12.1,65.8-31.2c11.9-15.4,14.3-36.1,15-52.4
			c0.1-3.1,0.2-6.2,0.3-9.3c0.5-14.7,1-29.8,5.7-43.7C469.4,745,468.9,743.8,467.8,743.5z"/>
	</g>
	<g>
		<path d="M361.6,742.5c-37.6,7.9-73.8,23.9-104.9,46.2c-0.9,0.6-1.1,1.9-0.5,2.8c0.4,0.5,1,0.8,1.6,0.8c0.4,0,0.8-0.1,1.2-0.4
			c30.6-22,66.3-37.7,103.3-45.6c1.1-0.2,1.8-1.3,1.5-2.4C363.7,743,362.6,742.3,361.6,742.5z"/>
	</g>
	<g>
		<path d="M399.5,736.9c-3.8,0.9-7.6,1.7-11.4,2.6c-3.8,0.9-7.5,1.7-11.3,2.6c-1.1,0.2-1.8,1.3-1.5,2.4c0.2,0.9,1,1.6,1.9,1.6
			c0.1,0,0.3,0,0.4,0c3.8-0.9,7.6-1.7,11.4-2.6c3.8-0.9,7.5-1.7,11.3-2.6c1.1-0.2,1.8-1.3,1.5-2.4
			C401.7,737.4,400.6,736.7,399.5,736.9z"/>
	</g>
	<g>
		<path d="M205.4,890c-9.8-2.8-19.9,2.8-22.6,12.4c-1.3,4.7-0.7,9.6,1.7,13.8c2.4,4.2,6.3,7.3,11.1,8.6c1.7,0.5,3.4,0.7,5.1,0.7
			c8,0,15.3-5.2,17.6-13.1c1.3-4.7,0.7-9.6-1.7-13.8C214.1,894.4,210.2,891.3,205.4,890z M214.4,911.3c-2.1,7.5-10,11.8-17.7,9.7
			c-3.7-1-6.8-3.4-8.7-6.8c-1.9-3.3-2.4-7.1-1.3-10.7c1.7-6.2,7.5-10.2,13.7-10.2c1.3,0,2.7,0.2,4,0.6c3.7,1,6.8,3.4,8.7,6.8
			C214.9,903.9,215.4,907.7,214.4,911.3z"/>
	</g>
	<g>
		<path d="M200.1,903.2c-2.7,0-4.9,2.2-4.9,4.9s2.2,4.9,4.9,4.9s4.9-2.2,4.9-4.9S202.8,903.2,200.1,903.2z M200.1,909
			c-0.5,0-0.9-0.4-0.9-0.9s0.4-0.9,0.9-0.9s0.9,0.4,0.9,0.9S200.6,909,200.1,909z"/>
	</g>
	<g>
		<path d="M246,1093.5c-2.3-3.5-4.7-7-6.9-10.4c-17.5-26.6-33.8-55.6-34.7-87.1c-0.8-29.7,21.7-67.2,53.1-72.9
			c1.1-0.2,1.8-1.2,1.6-2.3c-0.2-1.1-1.2-1.8-2.3-1.6c-15.4,2.8-29.9,12.9-40.8,28.4c-10.3,14.7-16,32.4-15.6,48.5
			c0.9,32.5,17.5,62,35.3,89.1c2.3,3.5,4.6,7,7,10.5c15.3,22.8,31.1,46.4,38.4,73c13.8,50-7.6,107.6-49.9,137.2
			c19.4-36.5,36.1-74.9,26.2-112.5c-7.1-27-22.8-50.2-37.2-69.4c-3.4-4.5-6.9-9.4-10.7-14.6c-17.2-24-36.8-51.2-57.4-59
			c-1-0.4-2.2,0.1-2.6,1.2c-0.4,1,0.1,2.2,1.2,2.6c19.5,7.4,38.7,34.1,55.6,57.6c3.8,5.2,7.3,10.2,10.7,14.7
			c14.2,18.9,29.6,41.7,36.6,68c10.2,38.5-9,78.6-29.5,116.4c-0.4,0.8-0.3,1.8,0.4,2.4c0.4,0.4,0.9,0.6,1.4,0.6c0.4,0,0.7-0.1,1-0.3
			c48.1-29,73.1-91.8,58.2-145.9C277.4,1140.5,261.4,1116.6,246,1093.5z"/>
	</g>
	<g>
		<path d="M198.6,1126.4c-2.9-5-6-10.1-8.7-15.3l-1.4-2.7c-6.6-12.6-12.4-23.6-10.5-37.5c0.1-1.1-0.6-2.1-1.7-2.2
			c-1.1-0.1-2.1,0.6-2.2,1.7c-2.1,15.2,4,26.7,10.9,39.9l1.4,2.7c2.8,5.3,5.8,10.5,8.8,15.5c4.9,8.3,10,16.9,13.7,25.8
			c13.6,32.9,9.4,74.6-11,108.9c-22.8,38.1-59.2,60.5-85.8,72.6c-1.7,0.8-3.5,1.5-5.2,2.3c-8.1,3.6-16.5,7.2-23.9,12.6
			c-6.1,4.5-16.6,14.1-17.7,27.9c-0.4,5.5-1.4,8-3.2,8c-2,0.1-3.3-3.3-3.5-5.8c-1.5-17.6,9.1-32.4,15.5-39.7
			c9-10.2,20.2-19.6,34.3-29c73.1-48.3,82.5-85.4,81.6-103.2c-2-39.6-19.7-59.9-33.9-76.2c-3.4-3.9-6.6-7.6-9.3-11.2
			c-17.1-22.9-65.7-98.7-62.4-127.6c0.1-1.1-0.7-2.1-1.8-2.2c-1.1-0.1-2.1,0.7-2.2,1.8c-3.4,30.4,45.1,106.2,63.2,130.4
			c2.8,3.7,6,7.5,9.4,11.4c13.8,15.9,31,35.6,33,73.8c0.9,16.9-8.4,52.4-79.8,99.6c-14.4,9.5-25.9,19.2-35.1,29.6
			c-6.9,7.8-18.1,23.6-16.5,42.7c0.4,4.6,2.9,9.4,7.3,9.4c0.1,0,0.2,0,0.4,0c6.2-0.3,6.7-8.3,7-11.7c0.7-8.9,6.6-18,16.1-25
			c7-5.1,15.2-8.7,23.1-12.2c1.7-0.8,3.5-1.5,5.2-2.3c27.1-12.3,64.3-35.2,87.6-74.2c21-35.3,25.3-78.4,11.2-112.5
			C208.7,1143.5,203.6,1134.8,198.6,1126.4z"/>
	</g>
	<g>
		<path d="M49.7,908.3c-16.5,5.5-30.5,17.6-38.5,33.2c-0.5,1-0.1,2.2,0.9,2.7c0.3,0.1,0.6,0.2,0.9,0.2c0.7,0,1.4-0.4,1.8-1.1
			c7.4-14.7,20.6-26.1,36.1-31.2c1-0.3,1.6-1.5,1.3-2.5C51.9,908.5,50.8,907.9,49.7,908.3z"/>
	</g>
	<g>
		<path d="M100.8,1011.1c-0.2-1.1-1.3-1.8-2.3-1.6c-1.1,0.2-1.8,1.3-1.6,2.3c1.8,9.5,5.8,18.7,11.4,26.6c0.4,0.5,1,0.8,1.6,0.8
			c0.4,0,0.8-0.1,1.2-0.4c0.9-0.6,1.1-1.9,0.5-2.8C106.3,1028.7,102.6,1020,100.8,1011.1z"/>
	</g>
	<g>
		<path d="M272.8,1181c-1.1,0.3-1.7,1.4-1.4,2.5c4,13.5,4,28.4,0,41.9c-0.3,1.1,0.3,2.2,1.4,2.5c0.2,0.1,0.4,0.1,0.6,0.1
			c0.9,0,1.7-0.6,1.9-1.4c4.2-14.2,4.2-29.9,0-44.1C275,1181.3,273.9,1180.7,272.8,1181z"/>
	</g>
</g>
<g>
	<path class="st0" d="M287.5,1731.4c-5-13.7-4.4-28.7,2.9-41.6c14.2-25.1,48.6-32.6,76.8-16.7s39.6,49.2,25.4,74.4
		c-8.1,14.4-22.9,23-39.4,24.7"/>
	<path class="st0" d="M285.2,1723.2l-75.8,103.9c0,0,1.5,31,31.7,47.1s58.4,13.1,58.4,13.1l59.4-115.8"/>
	<path class="st0" d="M304.5,1745.3c8,6.4,16.9,11.6,26.5,15.3"/>
	<line class="st0" x1="246.2" y1="1793" x2="220.6" y2="1827.1"/>
	<line class="st0" x1="252" y1="1786.5" x2="258" y2="1779"/>
	<line class="st0" x1="345.9" y1="1681.8" x2="350.9" y2="1684.6"/>
	<line class="st0" x1="364" y1="1692" x2="369.3" y2="1695"/>
	<line class="st0" x1="358.3" y1="1679.4" x2="364.5" y2="1682.9"/>
	<path class="st0" d="M287.3,1776.6c7.5,7.9,17.1,13.7,27.6,16.7"/>
</g>
<g>
	<path class="st0" d="M558.2,1362.5l-127.1,151.8c0,0,80,56.4,137-21.1C621.9,1419.9,558.2,1362.5,558.2,1362.5z"/>
	<path class="st0" d="M515.4,1519.7c23.5-10.8,43-30.3,53.8-53.8"/>
	<path class="st0" d="M573.8,1441.8c-0.6,4.4-1.2,8.8-1.8,13.2"/>
	<line class="st0" x1="492.9" y1="1461.2" x2="498.3" y2="1465.7"/>
	<line class="st0" x1="504.3" y1="1447.5" x2="509.7" y2="1452"/>
	<line class="st0" x1="515.4" y1="1432.7" x2="520.8" y2="1437.2"/>
	<line class="st0" x1="527.3" y1="1416.8" x2="532.7" y2="1421.3"/>
	<line class="st0" x1="479.6" y1="1476.3" x2="485" y2="1480.8"/>
	<line class="st0" x1="496.5" y1="1478.4" x2="502.4" y2="1483"/>
	<line class="st0" x1="507.4" y1="1463.4" x2="513.4" y2="1467.9"/>
	<line class="st0" x1="519.4" y1="1447.5" x2="525.4" y2="1452"/>
	<line class="st0" x1="530.9" y1="1433.8" x2="536.9" y2="1438.3"/>
	<line class="st0" x1="513.4" y1="1477.5" x2="519.4" y2="1482"/>
	<line class="st0" x1="524.3" y1="1463.7" x2="530.3" y2="1468.2"/>
	<line class="st0" x1="533.9" y1="1449.8" x2="539.9" y2="1454.3"/>
	<path class="st0" d="M437.7,1506c8.6,6,18.5,10.2,28.8,12.2"/>
</g>
<g>
	<polygon class="st0" points="610.4,1263.2 652.3,1439.9 727.3,1428.4 715.8,1247.1 	"/>
	
		<rect x="591.9" y="1228.1" transform="matrix(0.9885 -0.1512 0.1512 0.9885 -180.2154 113.7816)" class="st0" width="132.3" height="27.6"/>
	<polygon class="st0" points="602,1208.7 595.9,1237.5 716.4,1219.1 705.5,1192.9 	"/>
	<path class="st0" d="M675.5,1316c-2.4-1.3-9.4,1.7-12.1,4.2c-3.7,3.5-5.3,7.5-6,12.4c-0.6,5.1,2.9,18.1,6.6,21.2
		c0,0-0.1-6.7,1.2-9.6c1.4-3,3.8-5.3,6-7.8s4.4-5.1,5.4-8.2C678,1323.9,680.1,1318.9,675.5,1316z"/>
	<path class="st0" d="M683.2,1321.5c0,0,0.4,6.7-0.8,9.7c-1.2,3-3.4,5.5-5.5,8.1s-4.2,5.3-5,8.5c-1.1,4.4-0.4,9.9,2.9,12.9
		c4.8,2.1,9-3,11.3-6c3.2-4.1,4.4-6.8,4.8-12.4C691.2,1337.6,687,1324.4,683.2,1321.5z"/>
	<line class="st0" x1="653.8" y1="1411.5" x2="634.9" y2="1336.9"/>
	<line class="st0" x1="634" y1="1330.7" x2="631.3" y2="1323.4"/>
	<line class="st0" x1="608" y1="1211.8" x2="603.7" y2="1231.7"/>
	<line class="st0" x1="710" y1="1248" x2="710.2" y2="1279.8"/>
	<path class="st0" d="M643.3,1193c8.6-8.2,17.4-16.9,21.5-28s2-25.6-7.9-32c-5.5-3.5-12.3-4.2-18.8-3.9
		c-10.1,0.4-22.1,4.7-23.6,14.7c-0.9,6.1,3.4,12.5,9.4,14s12.8-2.1,14.9-7.9"/>
	<path class="st0" d="M672.2,1182.3c4.9-9.9,9.8-20.1,11.2-31s-1.3-23-9.7-30.3c-5.1-4.4-11.6-6.5-17.9-8.7
		c-6.3-2.2-12.8-4.6-17.6-9.2s-7.4-12.2-4.4-18.2"/>
</g>
<g>
	<path class="st0" d="M856.4,704.9c-10.5-3.8-21-6.2-31.8-6.3c-10.5-0.2-21.2,1.8-32.2,6.4c-20.4,8.4-24.3,32.7-14.5,49.1
		c0,0,16.3,25.7,21.4,37.8c3,6.9,4.8,11.4,14,12.5c15.4,1.8,23.4-11.4,29.3-19.2c8.4-11.1,21.9-19.6,28.8-31.3
		C881,737.5,877.3,712.4,856.4,704.9z"/>
	<line class="st0" x1="791.2" y1="724.1" x2="795.6" y2="738.5"/>
	<line class="st0" x1="823.4" y1="724.1" x2="823.4" y2="738.7"/>
	<path class="st0" d="M851.7,738.5"/>
	<line class="st0" x1="856.7" y1="725.6" x2="849.8" y2="738.5"/>
	<line class="st0" x1="800.6" y1="749.6" x2="804.1" y2="761.4"/>
	<line class="st0" x1="822.1" y1="748" x2="822.1" y2="759.8"/>
	<line class="st0" x1="846.7" y1="749.2" x2="840.7" y2="760.4"/>
	<line class="st0" x1="812.8" y1="769.4" x2="814.5" y2="780.1"/>
	<line class="st0" x1="832.3" y1="769.1" x2="828.7" y2="780.6"/>
	<path class="st0" d="M809,699.9c-5.1-4.3-9.1-7.6-14.2-11.9c9.9,1,19.5,4.5,27.8,10"/>
	<path class="st0" d="M829.6,698.7c5-6.8,20.3-10.2,28.3-13c0.3,5.5-8.3,10.5-8.5,16"/>
	<path class="st0" d="M839.4,689.9c-4.5-5.3-7.5-10-13.3-13.9c-6,4.7-16.2,15.6-16.2,15.6"/>
</g>
<g>
	<path class="st0" d="M376.6,1503.4c-5.1-11.8-20.2-19.6-32.5-11.2c-6.1,4.2-11.6,9-15.9,14.8c-4.2,5.6-7.3,12.2-9.2,20
		c-3.4,14.4,8.2,26.1,21,27.2c0,0,20.4,1.3,28.9,3.3c4.9,1.1,8.1,1.9,12.3-2.7c7.1-7.7,3-17.3,1.1-23.5
		C379.5,1522.4,380.3,1511.7,376.6,1503.4z"/>
	<line class="st0" x1="329" y1="1535.2" x2="338.6" y2="1538.5"/>
	<line class="st0" x1="341.6" y1="1517.7" x2="349.6" y2="1523.5"/>
	<path class="st0" d="M360.6,1508"/>
	<line class="st0" x1="355.6" y1="1500.2" x2="359.9" y2="1509.1"/>
	<line class="st0" x1="346.5" y1="1540.1" x2="354.3" y2="1542.9"/>
	<line class="st0" x1="354.1" y1="1527.8" x2="360.5" y2="1532.5"/>
	<line class="st0" x1="364.5" y1="1514.9" x2="368.1" y2="1522.6"/>
	<path class="st0" d="M322.9,1516.1c-4.3,1.1-7.7,1.9-12,3c4.4-5,10.1-8.8,16.4-11.2"/>
	<path class="st0" d="M330.3,1504.4c-1.7-5.4,2.4-15,4.1-20.5c3.1,2,2.4,8.7,5.4,10.9"/>
</g>
<g>
	<g>
		<path d="M1053.1,2170.1c-35.2-17-74.1-21-115.7-11.9c-41.6,9.2-75.2,29.1-99.7,59.4c-20.3,25.1-30,51.8-34.5,69.8
			c-1.2,4.8,0.1,9.8,3.6,13.3c2.7,2.8,6.4,4.3,10.2,4.3c1,0,2.1-0.1,3.1-0.3l286.5-63.1c4.9-1.1,8.7-4.5,10.4-9.2
			c1.6-4.7,0.7-9.8-2.5-13.6C1102.6,2204.3,1082.3,2184.2,1053.1,2170.1z M819.6,2302.7L819.6,2302.7L819.6,2302.7z M1113.2,2231
			c-1.2,3.4-4,5.9-7.5,6.6l-286.5,63.1c-3.5,0.8-7-0.3-9.5-2.9c-2.5-2.5-3.4-6.1-2.6-9.5c7.8-31,36.3-105.4,131.2-126.2
			c14.9-3.3,28.9-4.7,42-4.7c67,0,109.9,38.2,131.1,63.9C1113.7,2224,1114.3,2227.7,1113.2,2231z"/>
	</g>
	<g>
		<path d="M815.4,2367.5c-2.1-0.3-15.8-2.5-18.3-13.9c-2.5-11.6,9-18.7,10.9-19.8l317.1-69.8v-4.1l-318.2,70c-0.2,0-0.4,0.1-0.5,0.2
			c-0.7,0.4-16.5,9-13.1,24.3c3.4,15.2,21.4,17,22.2,17c0.1,0,0.1,0,0.2,0c0.1,0,0.3,0,0.4,0l309.1-68v-4.1L815.4,2367.5z"/>
	</g>
	<g>
		<path d="M821.1,2302.4c-0.2-1.1-1.3-1.8-2.4-1.5c-1.1,0.2-1.8,1.3-1.5,2.4l5.6,25.3c0.2,0.9,1,1.6,2,1.6c0.1,0,0.3,0,0.4,0
			c1.1-0.2,1.8-1.3,1.5-2.4L821.1,2302.4z"/>
	</g>
	<g>
		<path d="M1106.9,2239.5c-0.2-1.1-1.3-1.8-2.4-1.5c-1.1,0.2-1.8,1.3-1.5,2.4l5.6,25.3c0.2,0.9,1,1.6,2,1.6c0.1,0,0.3,0,0.4,0
			c1.1-0.2,1.8-1.3,1.5-2.4L1106.9,2239.5z"/>
	</g>
	<g>
		<path d="M848.8,2348.7l-10.6,2.3c-1.1,0.2-1.8,1.3-1.5,2.4c0.2,0.9,1,1.6,2,1.6c0.1,0,0.3,0,0.4,0l10.6-2.3
			c1.1-0.2,1.8-1.3,1.5-2.4C850.9,2349.1,849.9,2348.5,848.8,2348.7z"/>
	</g>
	<g>
		<path d="M898.6,2329.5l-39.5,8.7c-1.1,0.2-1.8,1.3-1.5,2.4c0.2,0.9,1,1.6,2,1.6c0.1,0,0.3,0,0.4,0l39.5-8.7
			c1.1-0.2,1.8-1.3,1.5-2.4C900.8,2330,899.7,2329.3,898.6,2329.5z"/>
	</g>
	<g>
		<path d="M860.3,2327.2l-10.1,2.2c-1.1,0.2-1.8,1.3-1.5,2.4c0.2,0.9,1,1.6,2,1.6c0.1,0,0.3,0,0.4,0l10.1-2.2
			c1.1-0.2,1.8-1.3,1.5-2.4C862.4,2327.7,861.3,2327,860.3,2327.2z"/>
	</g>
	<g>
		<path class="st0" d="M896.8,2340.2"/>
	</g>
	<g>
		<path class="st0" d="M913.5,2336.5"/>
	</g>
	<g>
		<path d="M913.1,2334.6l-16.7,3.7c-1.1,0.2-1.8,1.3-1.5,2.4c0.2,0.9,1,1.6,2,1.6c0.1,0,0.3,0,0.4,0l16.7-3.7
			c1.1-0.2,1.8-1.3,1.5-2.4C915.2,2335,914.1,2334.3,913.1,2334.6z"/>
	</g>
	<g>
		<path d="M1124.7,2288l-70.3,15.5c-1.1,0.2-1.8,1.3-1.5,2.4c0.2,0.9,1,1.6,2,1.6c0.1,0,0.3,0,0.4,0l69.8-15.4v-4.1
			C1124.9,2287.9,1124.8,2288,1124.7,2288z"/>
	</g>
	<g>
		<path d="M1107.9,2272.7c-1.1,0.2-1.8,1.3-1.5,2.4c0.2,0.9,1,1.6,2,1.6c0.1,0,0.3,0,0.4,0l16.2-3.6v-4.1L1107.9,2272.7z"/>
	</g>
	<g>
		<path d="M972.6,2349.5c-44.5,8.9-114.7,24.9-142.9,31.3c-1.3,0.3-2-0.7-2.1-1c-0.2-0.3-0.6-1.4,0.5-2.3c0,0,0.1-0.1,0.1-0.1
			l11.7-11.4c0.8-0.8,0.8-2,0-2.8c-0.8-0.8-2-0.8-2.8,0l-11.7,11.3c-2.1,1.8-2.6,4.7-1.4,7.1c1,2.1,3,3.3,5.2,3.3
			c0.5,0,0.9-0.1,1.4-0.2c28.1-6.4,98.3-22.4,142.8-31.3c43.7-8.8,116.4-25.2,151.6-33.2v-4.1
			C1090.1,2324.1,1016.6,2340.7,972.6,2349.5z"/>
		<path d="M1117,2302c-0.5,1-0.1,2.2,0.9,2.7l7.1,3.6v-4.5l-5.3-2.7C1118.7,2300.6,1117.5,2301,1117,2302z"/>
	</g>
	<g>
		<polygon points="855.1,2436 873.7,2436 1125,2380.7 1125,2376.6 		"/>
		<path d="M837.6,2434c-4.4-2.8-7.4-7.1-8.5-12.2l-5.5-24.9l301.4-66.3v-4.1l-304.2,67c-0.5,0.1-1,0.4-1.3,0.9
			c-0.3,0.4-0.4,1-0.3,1.5l5.9,26.9c1.2,5.5,4.2,10,8.3,13.3h8.2C840.2,2435.5,838.8,2434.9,837.6,2434z"/>
	</g>
	<g>
		<path d="M838.5,2381.6c-0.2-1.1-1.3-1.8-2.4-1.5c-1.1,0.2-1.8,1.3-1.5,2.4l2.1,9.6c0.2,0.9,1,1.6,2,1.6c0.1,0,0.3,0,0.4,0
			c1.1-0.2,1.8-1.3,1.5-2.4L838.5,2381.6z"/>
	</g>
	<g>
		<path d="M1124.2,2318.4c-0.2-1.1-1.3-1.8-2.4-1.5c-1.1,0.2-1.8,1.3-1.5,2.4l2.2,9.9c0.2,0.9,1,1.6,2,1.6c0.1,0,0.3,0,0.4,0
			c0,0,0.1,0,0.1,0v-8.7L1124.2,2318.4z"/>
	</g>
	<g>
		<path d="M1046.5,2079.7l-78.1-18.9c-1-0.2-2.1,0.3-2.4,1.4l-30.1,97.3c-0.3,1.1,0.3,2.2,1.3,2.5c0.2,0.1,0.4,0.1,0.6,0.1
			c0.9,0,1.6-0.6,1.9-1.4l18.9-61.1l76.3,18.5c0.7,0.2,1.5-0.1,2-0.6c0.5-0.6,0.6-1.4,0.3-2.1l-7.8-19.6l17.8-12.6
			c0.6-0.5,1-1.2,0.8-2C1047.8,2080.5,1047.2,2079.9,1046.5,2079.7z M1025.8,2093.5c-0.8,0.5-1,1.5-0.7,2.4l7,17.5l-72.3-17.5
			l9.5-30.7l72,17.4L1025.8,2093.5z"/>
	</g>
	<g>
		<path d="M855.9,2220.9c-0.9-0.7-2.1-0.5-2.8,0.4l-9.4,12.3c-0.7,0.9-0.5,2.1,0.4,2.8c0.4,0.3,0.8,0.4,1.2,0.4
			c0.6,0,1.2-0.3,1.6-0.8l9.4-12.3C857,2222.8,856.8,2221.6,855.9,2220.9z"/>
	</g>
	<g>
		<path d="M870.6,2217.4l-5.2,6.3c-0.7,0.9-0.6,2.1,0.3,2.8c0.4,0.3,0.8,0.5,1.3,0.5c0.6,0,1.1-0.2,1.5-0.7l5.2-6.3
			c0.7-0.9,0.6-2.1-0.3-2.8C872.6,2216.4,871.3,2216.5,870.6,2217.4z"/>
	</g>
	<g>
		<path d="M892.3,2209.6c-0.9-0.6-2.1-0.4-2.8,0.4l-7.2,10c-0.6,0.9-0.4,2.1,0.4,2.8c0.4,0.3,0.8,0.4,1.2,0.4c0.6,0,1.2-0.3,1.6-0.8
			l7.2-10C893.4,2211.5,893.2,2210.2,892.3,2209.6z"/>
	</g>
	<g>
		<path d="M874.8,2195.7c-0.9-0.7-2.1-0.6-2.8,0.3l-7.3,9.1c-0.7,0.9-0.6,2.1,0.3,2.8c0.4,0.3,0.8,0.4,1.3,0.4
			c0.6,0,1.2-0.3,1.6-0.7l7.3-9.1C875.8,2197.6,875.6,2196.4,874.8,2195.7z"/>
	</g>
	<g>
		<path d="M1061.7,2206.6c-0.8-0.8-2.1-0.8-2.8,0c-0.8,0.8-0.8,2.1,0,2.8l7.1,6.9c0.4,0.4,0.9,0.6,1.4,0.6c0.5,0,1-0.2,1.4-0.6
			c0.8-0.8,0.8-2.1,0-2.8L1061.7,2206.6z"/>
	</g>
	<g>
		<path d="M1057.3,2186.9c-0.8-0.7-2.1-0.7-2.8,0.1c-0.7,0.8-0.7,2.1,0.1,2.8l9.9,9.1c0.4,0.4,0.9,0.5,1.4,0.5
			c0.5,0,1.1-0.2,1.5-0.6c0.7-0.8,0.7-2.1-0.1-2.8L1057.3,2186.9z"/>
	</g>
</g>
<g>
	<circle class="st0" cx="638.7" cy="308.6" r="51.6"/>
	<circle class="st0" cx="638.7" cy="307" r="17.9"/>
	<line class="st0" x1="603.7" y1="288" x2="609.7" y2="284"/>
	<line class="st0" x1="613.1" y1="303.4" x2="609.7" y2="297.3"/>
	<line class="st0" x1="606.7" y1="335" x2="611.4" y2="324.9"/>
	<line class="st0" x1="632" y1="335" x2="643.5" y2="329.9"/>
	<line class="st0" x1="672.7" y1="320.2" x2="677.6" y2="329.9"/>
	<line class="st0" x1="665.2" y1="307" x2="672.7" y2="298.5"/>
	<line class="st0" x1="661.6" y1="279.7" x2="672.7" y2="284"/>
	<line class="st0" x1="650.7" y1="281.8" x2="646.2" y2="274.1"/>
	<line class="st0" x1="624.2" y1="274.1" x2="630.5" y2="266"/>
	<line class="st0" x1="597.4" y1="318.6" x2="601.3" y2="310.9"/>
	<line class="st0" x1="643.5" y1="343.5" x2="650.7" y2="349.2"/>
	<line class="st0" x1="618.8" y1="346.3" x2="627.4" y2="343.5"/>
	<line class="st0" x1="659.8" y1="332.5" x2="665.2" y2="326.6"/>
	<line class="st0" x1="677.6" y1="310.9" x2="683.3" y2="305.8"/>
</g>
<g>
	<circle class="st0" cx="422.7" cy="561.7" r="14.7"/>
	<circle class="st0" cx="475.6" cy="562.3" r="14"/>
	<path class="st0" d="M422.7,547c0,0,2.7-23.6,11.2-32c8.4-8.4,24.8-19.1,24.8-19.1s-5.7,20.9,2.8,33.3c8.6,12.4,14,19.2,14,19.2"/>
	<path class="st0" d="M480.4,496.3c-5.2-2.7-21.7,0-21.7,0s3.8,15.3,17.2,17.2c13.5,1.9,19,0,19,0S485.6,499,480.4,496.3z"/>
	<line class="st0" x1="458.7" y1="496.3" x2="472.5" y2="504.7"/>
	<path class="st0" d="M419.9,569.7c-3-2-4.9-5.5-5.2-9.1"/>
</g>
<g>
	<g>
		<path d="M1082.5,2120.7c-9.2,0-16.7,7.5-16.7,16.7s7.5,16.7,16.7,16.7s16.7-7.5,16.7-16.7S1091.8,2120.7,1082.5,2120.7z
			 M1082.5,2150.1c-7,0-12.7-5.7-12.7-12.7s5.7-12.7,12.7-12.7s12.7,5.7,12.7,12.7S1089.5,2150.1,1082.5,2150.1z"/>
	</g>
	<g>
		<path d="M1123.4,2138c0-2.1,0.6-4.1,1.6-5.9v-6.2c-3.4,2.9-5.6,7.3-5.6,12.1s2.2,9.2,5.6,12.1v-6.2
			C1124,2142.2,1123.4,2140.2,1123.4,2138z"/>
	</g>
	<g>
		<path d="M1123,2103.8c-7.9-11.5-2.6-31.4-2.5-31.6c0.2-0.8-0.1-1.7-0.8-2.1c-0.7-0.5-1.6-0.5-2.3-0.1
			c-0.7,0.4-16.7,10.9-25.1,19.4c-8.9,8.8-11.7,32.2-11.8,33.2c-0.1,1.1,0.7,2.1,1.8,2.2c1.1,0.1,2.1-0.7,2.2-1.8
			c0-0.2,2.7-23,10.6-30.8c5.6-5.6,15-12.4,20.4-16.1c-1.2,7.2-2.3,20.7,4.1,30c1.9,2.8,3.7,5.3,5.3,7.5v-6.9
			C1124.4,2105.7,1123.7,2104.8,1123,2103.8z"/>
	</g>
	<g>
		<path d="M1121.2,2073.7c1.2-0.2,2.5-0.3,3.8-0.4v-4c-3.4,0.3-6.1,0.7-6.8,0.9c-0.6,0.1-1,0.4-1.3,0.9c-0.3,0.5-0.4,1-0.3,1.6
			c0.1,0.5,2.2,8.4,8.4,13.9v-5.9C1123.1,2078,1121.9,2075.4,1121.2,2073.7z"/>
	</g>
	<g>
		<path d="M1119.6,2070.3c-0.9-0.6-2.2-0.3-2.7,0.7c-0.6,0.9-0.3,2.2,0.7,2.7l7.5,4.6v-4.7L1119.6,2070.3z"/>
	</g>
	<g>
		<path d="M1080.9,2143.8c-2.4-1.6-4.1-4.5-4.3-7.6c-0.1-1.1-1-1.9-2.2-1.8c-1.1,0.1-1.9,1.1-1.8,2.2c0.4,4.3,2.6,8.3,6.1,10.6
			c0.3,0.2,0.7,0.3,1.1,0.3c0.6,0,1.3-0.3,1.7-0.9C1082,2145.6,1081.8,2144.4,1080.9,2143.8z"/>
	</g>
</g>
<g>
	<path class="st0" d="M848.5,320c-42.2-45.7-3.3-74-3.3-74l-44.3-37.4L654.4,419.8l115.1,99.7l196-161.1l-40.7-35.6
		C924.8,322.8,890.7,365.8,848.5,320z"/>
	<path class="st0" d="M797.8,243.1c-15.7,24.8-32.2,49-47.9,73.8"/>
	<polyline class="st0" points="822.4,226.3 869.3,117.6 894.9,126.9 838.2,239.4 	"/>
	<polyline class="st0" points="830.3,289.6 892,200.8 913.2,218.2 888.3,248.4 866.9,281.4 911.2,249.6 920.6,266.6 848.5,320 	"/>
	<polyline class="st0" points="939.6,335.8 976.1,314 988.3,330.8 956.3,350.4 	"/>
	<polyline class="st0" points="928.6,326.2 984.6,248.4 964.4,238.5 942.8,264.7 970.1,188.9 943.8,179 931.6,203 872.3,174.4 	"/>
	<path class="st0" d="M931.8,277.5c-10.3,12.4-20.5,24.9-30.8,37.3"/>
	<line class="st0" x1="739.2" y1="329.9" x2="722.7" y2="355.8"/>
	<circle class="st0" cx="794.6" cy="390.9" r="42.3"/>
	<circle class="st0" cx="794.6" cy="390.9" r="26.9"/>
</g>
<g>
	<path class="st0" d="M429.9,601.9c-25.3,11.5-30.7,35.4-30.7,35.4l-16.3,0.3c-2.4,0-3.9,2.5-2.8,4.6l10.7,21
		c1.1,2.2,4.2,2.4,5.5,0.3l9.1-14c0,0,26.1,7.3,47.6-4.9s19.6-35,19.6-35S455.1,590.3,429.9,601.9z"/>
	<path class="st0" d="M448.7,598.9c0.4,13.4,5.5,25.6,15.5,34.6"/>
	<ellipse class="st0" cx="461.6" cy="613.6" rx="2.7" ry="2.6"/>
</g>
<g>
	<polyline class="st0" points="574.9,638.4 557.3,635.7 532.4,658.4 515.9,640.2 540.8,617.6 538,594.4 	"/>
	<line class="st0" x1="553.1" y1="628.3" x2="570.2" y2="625.4"/>
	<path class="st0" d="M587.6,568.9c-1-4.8-3.3-9.4-6.9-13.3c-10.7-11.8-29-12.7-40.7-2c-11.8,10.7-12.7,29-2,40.7
		c6.2,6.8,14.8,9.9,23.3,9.4"/>
	<path class="st0" d="M571.5,626.8c-13.2-14.5-14.2-37.7-0.6-50s35.3-10.5,48.5,4s8.4,41.2-7.2,50.8"/>
	<path class="st0" d="M620.1,625c-1.3,5.2-2.7,12-7.2,16.1c-10.8,9.8-26.5,10.2-35,0.9c-3.6-3.9-5.3-8.9-5.3-14.1"/>
	<path class="st0" d="M619.7,603.1c0.3,6.2-2,12.4-6.2,17"/>
	<path class="st0" d="M560.8,611.2c-1.9,1.9-3.7,3.7-5.6,5.6"/>
</g>
<g>
	<g>
		<path class="st0" d="M542.4,1959.5c-10.8,8-24.3,12.7-38.8,12.7c-36.1,0-65.3-29.2-65.3-65.3c0-36.1,29.2-65.3,65.3-65.3
			s65.3,29.2,65.3,65.3c0,16-5.8,30.7-15.4,42.1"/>
		<path class="st0" d="M490.1,1949.2c-4.7-1.5-9.1-3.8-12.9-6.7"/>
		<path class="st0" d="M467.4,1932.6c-5.1-7.2-8.2-16.1-8.2-25.7c0-24.5,19.9-44.4,44.4-44.4"/>
	</g>
	<path class="st0" d="M530.6,1907c-4.9-6.5-19-13.7-27-9.4c-7.9,4.3-1.6,24.3,3.9,29.2c5.6,4.8,17.7,8.7,17.7,8.7l43.8,52.8
		l11.2-8.7l-45.9-52.8C534.3,1926.8,535.5,1913.5,530.6,1907z"/>
</g>
<g>
	<path class="st0" d="M745.6,1774.3c-23.8-9.8-41.1,18.4-41.1,18.4l-12.9,110.3c-0.5,4.4,5.2,6.6,7.8,3l66.2-93.3
		C765.5,1812.8,769.4,1784.2,745.6,1774.3z"/>
	<line class="st0" x1="701.9" y1="1814.5" x2="719.9" y2="1820.7"/>
	<line class="st0" x1="733.7" y1="1857" x2="721.9" y2="1851.8"/>
	<line class="st0" x1="696.3" y1="1861.8" x2="714.8" y2="1868.3"/>
	<line class="st0" x1="733.9" y1="1772.3" x2="754.4" y2="1688.1"/>
	<line class="st0" x1="745.6" y1="1774.3" x2="758.2" y2="1741.8"/>
	<line class="st0" x1="753.2" y1="1777.9" x2="791.7" y2="1727.7"/>
</g>
<g>
	<circle class="st0" cx="321.9" cy="1964.7" r="33.8"/>
	<line class="st0" x1="336.5" y1="1986.1" x2="373.3" y2="2047.8"/>
	<path class="st0" d="M305.8,1976.8c-3-6.4-2.3-14.3,1.7-20s11.3-9.1,18.3-8.4c2.8,0.3,5.5,1.1,7.7,2.8c4.1,3,6.1,8.3,6.1,13.4
		c0,4.7-1.5,9.6-4.9,13c-3.4,3.3-8.8,4.7-13.1,2.8s-6.9-7.5-4.9-11.8s8.7-5.7,11.8-2.2"/>
</g>
<g>
	
		<ellipse transform="matrix(0.8001 -0.5999 0.5999 0.8001 -1190.5448 856.0895)" class="st0" cx="689.2" cy="2214.3" rx="22.4" ry="16.2"/>
	<polyline class="st0" points="706.1,2199.7 719.4,2171.4 738.9,2197.3 708,2202.2 	"/>
	<polyline class="st0" points="668.9,2224.6 639.4,2226 659.2,2252.5 671.3,2227.7 	"/>
</g>
<g>
	
		<ellipse transform="matrix(0.6132 -0.7899 0.7899 0.6132 -675.1982 663.5085)" class="st0" cx="339.9" cy="1021.2" rx="22.4" ry="16.2"/>
	<polyline class="st0" points="351.9,1002.4 357.7,971.9 383.3,991.8 355.2,1005 	"/>
	<polyline class="st0" points="324.6,1037.5 295,1045.8 321,1066 326.2,1039 	"/>
	<path class="st0" d="M327.4,1012.1c7.8,5.7,15.5,11.4,23.3,17.2"/>
</g>
<g>
	<g>
		<path d="M34.6,37.7c4.4,7.8,10.8,14,17.9,17.3c3.7,1.7,7.4,2.6,11,2.6c3.5,0,6.8-0.8,9.7-2.5c12.1-6.8,14.5-25.6,5.3-42
			C75.6,7.9,71.8,3.4,67.5,0h-7.3c5.9,3.1,11.2,8.4,15,15c8.1,14.4,6.4,30.9-3.8,36.6c-4.8,2.7-10.9,2.6-17.1-0.2
			c-6.4-3-12.1-8.5-16.1-15.6C30.4,21.9,31.6,6.3,40.6,0h-5.9C27.4,8.7,27,24.1,34.6,37.7z"/>
	</g>
	<g>
		<path d="M112.8,74.6L75.9,50c-0.9-0.6-2.2-0.4-2.8,0.6c-0.6,0.9-0.4,2.2,0.6,2.8l34.3,22.8L73.1,95.6l-1.6-41.1c0-1.1-1-2-2.1-1.9
			c-1.1,0-2,1-1.9,2.1L69.3,99c0,0.7,0.4,1.3,1,1.7c0.3,0.2,0.6,0.3,1,0.3c0.3,0,0.7-0.1,1-0.3L112.7,78c0.6-0.3,1-1,1-1.7
			S113.4,75,112.8,74.6z"/>
	</g>
	<g>
		<path d="M74.6,12.2C64.3,18.4,53.3,25,38.9,33.4c-1,0.6-1.3,1.8-0.7,2.7c0.4,0.6,1,1,1.7,1c0.3,0,0.7-0.1,1-0.3
			c14.3-8.4,25.3-15,35.6-21.2c0.9-0.6,1.3-1.8,0.7-2.7C76.7,12,75.5,11.7,74.6,12.2z"/>
	</g>
	<g>
		<path d="M76.9,63.6c-1.1,0.1-1.9,1-1.9,2.1l0.8,11.8c0.1,1.1,0.9,1.9,2,1.9c0,0,0.1,0,0.1,0c1.1-0.1,1.9-1,1.9-2.1L79,65.5
			C78.9,64.4,78,63.5,76.9,63.6z"/>
	</g>
	<g>
		<path d="M90.9,69.1c-0.6-0.4-5.1-3.7-9-6.6c-0.9-0.7-2.1-0.5-2.8,0.4c-0.7,0.9-0.5,2.1,0.4,2.8c8.9,6.7,9.3,6.9,9.5,7
			c0.3,0.1,0.6,0.2,0.9,0.2c0.7,0,1.4-0.4,1.8-1.1C92.2,70.8,91.8,69.6,90.9,69.1z"/>
	</g>
</g>
<g>
	<path class="st0" d="M414.9,1225.6c-4.6-1.2-9.3-2.4-14.1-2.4s-9.8,1.6-13,5.2c-4.6,5.1-4.5,12.8-3.2,19.6
		c4.4,22.4,20.5,42.1,41.5,50.9c4.1,1.7,8.5,3.1,12.9,2.4c9.1-1.4,14.8-11.4,14.7-20.6c-0.1-9.2-4.5-17.7-8.8-25.8"/>
	<ellipse class="st0" cx="465.9" cy="1243.3" rx="12.2" ry="12.9"/>
	<path class="st0" d="M470.7,1179.5c-5.4-2.8-11-5.3-16.8-7.3c-1.8-0.6-3.8-1.2-5.5-0.3c-1.7,1-2.2,3.4-1.6,5.2
		c0.6,1.9,2,3.4,3.4,4.8c9.2,9.1,19.8,16.7,29,25.9c9.1,9.2,17,20.5,18.6,33.3"/>
	<path class="st0" d="M496.3,1154.9c-5.4-2.8-11-5.3-16.8-7.3c-1.8-0.6-3.8-1.2-5.5-0.3c-1.7,1-2.2,3.4-1.6,5.2
		c0.6,1.9,2,3.4,3.4,4.8c9.2,9.1,19.8,16.7,29,25.9s17,20.5,18.6,33.3"/>
	<path class="st0" d="M473,1216.6c6.1-5.3,12.2-10.6,18.3-16"/>
	<path class="st0" d="M500.6,1192.2c3.3-3.7,6.5-7.3,9.8-11"/>
	<path class="st0" d="M527,1173.9c4.5-5,8.9-10,13.4-15c1.2-1.4,2.5-2.8,3.2-4.5s0.7-3.8-0.4-5.3c-1.7-2.4-5.5-2.1-8-0.7
		c-5.3,3-7.8,9.4-8.5,15.4c-0.5,4-0.3,8.1,1.5,11.7s5.4,6.4,9.4,6.2c4-0.2,7.7-4,7-7.9"/>
	<path class="st0" d="M554.4,1140.2c3.2-3.6,6-7.5,8.2-11.8c0.9-1.7,1.7-3.8,0.6-5.4c-1.2-1.9-4.2-1.7-5.9-0.2s-2.3,3.8-2.8,6
		c-0.9,3.9-1.8,8-1.1,12s3.1,7.9,7,9.1c3.8,1.2,8.8-1.3,9-5.4"/>
</g>
<g>
	<g>
		<path class="st0" d="M880,1902c-0.5-5.7-0.7-8.2-1.2-13.9c-88.4,16.4-96.5,112.1-95.8,147.7c-16.9,3.7-40.4,1.2-52.5,13.7
			c-4.2,4.3-6,13.6-5.1,19.6c1.2,8.1,10.7,16.4,18.4,19.2c9.9,3.5,15.6-7.2,23.1-11.9c4.2-2.6,10.9-7.9,14.5-5.9
			c3.3,1.8,3.3,11.8,3.3,15.6c0.2,11-0.3,18.9,8.2,23.7c3.6,2,25.5,2.8,29.2,1.1c12.2-5.5,10.9-19.2,10.2-23.5
			c-2.8-17.1-16.7-26.9-24.9-37.6l-1.5-2.2c37.2-17.7,65.4-35.6,84.4-67.3c13.7-22.9,18.7-51.7,1.8-83.9
			C885,1899.3,885.9,1898.8,880,1902z"/>
		<circle class="st0" cx="867" cy="1917.9" r="6.8"/>
		<path class="st0" d="M847.8,1997.6"/>
		<path class="st0" d="M755.7,2048.4c8.7-0.5,17.4-1.7,25.8-3.7"/>
		<path class="st0" d="M768.8,2059.5c4.4-2.3,8.7-4.5,13.1-6.8"/>
		<path class="st0" d="M802.3,2055.7c2,5.2,4.5,10.2,7.6,14.8"/>
		<path class="st0" d="M795.1,2061.6c-0.5,5.4-0.1,10.8,1.3,16.1"/>
		<path class="st0" d="M786.2,1994.4c-9.9-15.1-12.3-38-4-54s25.7-26.9,43.8-27.4"/>
		<path class="st0" d="M782.6,1964.4c1.7,0.2,3.4,0.4,5.1,0.6"/>
		<path class="st0" d="M786.6,1942.7c2.4,1.3,4.8,2.5,7.2,3.8"/>
		<path class="st0" d="M799.5,1928.7c1.1,1.8,2.1,3.5,3.2,5.3"/>
		<line class="st0" x1="793.8" y1="1936.6" x2="796.1" y2="1938.5"/>
		<line class="st0" x1="785.1" y1="1953.7" x2="788.8" y2="1954.7"/>
	</g>
	<path class="st0" d="M829.9,1910.2c2.9,16,11.4,29.3,24.1,39.5s27.5,16.1,43.7,15.4"/>
</g>
<g>
	<path class="st0" d="M264,2153.8c0,0,46.7,46.1,102.6,9.8c55.9-36.3,27.6-94.4,27.6-94.4L264,2153.8z"/>
	<line class="st0" x1="302.6" y1="2213.1" x2="432.8" y2="2128.5"/>
	<path class="st0" d="M325.5,2096c-5.8,6.8-15.5,10-24.2,7.8c-5.7-1.4-10.7-4.9-14.9-8.9c-5.6-5.2-10.3-11.9-11.3-19.5
		s2.7-16.1,9.8-18.9c4.6-1.8,10.2-1,14,2.1c3.9,3.1,5.9,8.3,5.1,13.2c-0.3,1.9-1.1,3.8-2.5,5.1c-2.7,2.3-7.2,1.5-9.4-1.1
		c-2.3-2.7-2.5-6.7-1.1-10"/>
</g>
<g>
	<circle class="st0" cx="449.9" cy="2216.9" r="10"/>
	<circle class="st0" cx="423.5" cy="2259" r="5.5"/>
	<circle class="st0" cx="463.4" cy="2253.7" r="6.7"/>
</g>
<path class="st0" d="M631.3,2403.9c-15.5-11.8-31.7-24.5-38.3-42.8c-2.8-7.7-3.7-16-4.3-24.2c-0.8-10.1-1-20.6,3.2-29.8
	s14.2-16.4,24.1-14.3c7,1.5,12.4,7.4,15.5,13.8c3.5,7,4.8,15.5,1.6,22.7s-11.7,12.1-19.1,9.6c-7.4-2.5-10.7-13.6-4.9-18.8"/>
<path class="st0" d="M651.9,2354.7c12.5-15.3,15.8-37.5,8.4-55.7c-3.5-8.5-9-16-14.3-23.5c-11.7-16.6-22.5-34.3-26.9-54.1
	s-1.2-42.2,12.4-57.2"/>
<g>
	<path class="st0" d="M482.2,1643c0,0,41.3,47.5,73.5,27.5c32.2-20,7.7-77.9,7.7-77.9L482.2,1643z"/>
	<path class="st0" d="M567.9,1605.6c0,0,1.5-16.5,12.9-14.5s8.3,11.1,5.7,31.9c-2.5,20.8-14.4,5.2-14.4,5.2"/>
	<line class="st0" x1="526.1" y1="1698.9" x2="600.7" y2="1652.7"/>
	<path class="st0" d="M521.3,1611.3c-10.9,0.4-21.9-3.1-30.6-9.8c-8.6-6.7-14.8-16.5-17-27.2c-0.9-4.5-1.2-9.2,0.5-13.5
		c1.7-4.2,5.6-7.8,10.1-8c5.7-0.3,10.4,4.6,13,9.7c1.6,3.2,2.8,6.8,2.3,10.3s-2.7,7.1-6.1,8.1c-3.4,1.1-7.7-1-8.3-4.5"/>
</g>
<g>
	<path class="st0" d="M618.4,2031.7c-11.2-6.2-25.3-3.5-37.1,1.5c-30.4,12.8-53.4,38.2-75.3,62.8c0,0-11.2,12.3-11.2,28.2
		c0,7.7,12.8,16.2,20.2,18.6c11.5,3.6,21.4-12.6,30-21c14.7-14.2,32.2-25.6,51.1-33.3c11.6-4.7,24.6-8.7,31.5-19.1
		c6.3-9.5,5-22.8-2-31.6C623.6,2035.3,621.2,2033.2,618.4,2031.7z"/>
	<polyline class="st0" points="625.6,2037.8 627.6,2029.4 637.4,2040.4 628.8,2043 	"/>
	<polyline class="st0" points="500.9,2134.3 491,2136.4 503.5,2146.8 505.8,2138.1 	"/>
</g>
<g>
	<path class="st0" d="M646.3,1829.3c-12.3-10-41.1,5.8-52.6,19.9s-10.8,33.7,1.6,43.7c12.3,10,31.6,6.6,43-7.5
		C649.8,1871.3,658.6,1839.3,646.3,1829.3z"/>
	<path class="st0" d="M594,1875.1c-0.4-10.4,4.6-20.9,12.9-27.1"/>
</g>
<path class="st0" d="M402,1942l-9-35l13.9-35.2c0,0-6.5-12.2,0-20.4s17.2-9.9,17.2-9.9s3.9,9.5,0.5,20s-17.7,10.3-17.7,10.3"/>
<path class="st0" d="M392.9,1906.9l-34.1-44.4c0,0-8.8,1.6-12.3-2.3c-3.5-4-4.4-18.7-4.4-18.7s12.1,2.3,15.7,7.2s1,13.8,1,13.8"/>
<ellipse class="st0" cx="691.2" cy="1979.5" rx="50.4" ry="48.6"/>
<ellipse class="st0" cx="704" cy="1969.1" rx="8.4" ry="8.3"/>
<ellipse class="st0" cx="684.9" cy="2006.8" rx="4.9" ry="5.2"/>
<ellipse class="st0" cx="706.4" cy="1993.8" rx="6" ry="5.5"/>
<ellipse class="st0" cx="675.1" cy="1958.5" rx="12.1" ry="12.5"/>
<path class="st0" d="M754.6,2258c17-31.7,12.4-73.7-11-101c-16-18.7-38.8-30-58.6-44.7s-30.5-27.8-29.7-52.4"/>
<g>
	<polyline class="st0" points="704.4,2410 730.2,2381.4 775.2,2376.3 730.7,2336.2 730.2,2381.4 	"/>
	<line class="st0" x1="730.5" y1="2360.4" x2="751.5" y2="2379.4"/>
	<line class="st0" x1="693.7" y1="2403.1" x2="712.5" y2="2420.2"/>
</g>
<path class="st0" d="M319.2,1148.7c13.5,9.8,16.9,31.9,19,48.5c3.1,24.5-12.1,45.4-14.4,61.9"/>
<path class="st0" d="M304.5,1114c-10.9-14.4-20.3-29.9-28.1-46.1"/>
<path class="st0" d="M265.2,1022.5c-3.5-17.5,3.2-36.7,16.9-48.2"/>
<path class="st0" d="M359.6,938.9c43.2-10.9,82.9-34.6,112.9-67.5"/>
<circle class="st0" cx="422.7" cy="1005.2" r="9"/>
<ellipse transform="matrix(0.9871 -0.1602 0.1602 0.9871 -180.7455 79.8658)" class="st0" cx="405" cy="1161" rx="5.4" ry="5.4"/>
<path class="st0" d="M602.2,1092.4c-3,0-5.4,2.4-5.4,5.4c0,3,2.4,5.4,5.4,5.4c3,0,5.4-2.4,5.4-5.4
	C607.6,1094.9,605.2,1092.4,602.2,1092.4z"/>
<circle class="st0" cx="358.7" cy="1139.9" r="15.7"/>
<ellipse transform="matrix(0.9871 -0.1602 0.1602 0.9871 -207.675 70.5573)" class="st0" cx="333.8" cy="1323.4" rx="37.4" ry="37.4"/>
<line class="st0" x1="311.6" y1="1308.9" x2="309.1" y2="1315.3"/>
<line class="st0" x1="321.2" y1="1319.1" x2="318.7" y2="1325.6"/>
<line class="st0" x1="310.3" y1="1329" x2="308.2" y2="1338.4"/>
<g>
	<path class="st0" d="M285.8,1401.3c-19.3,9.1-33.2,20.3-31,25c2.2,4.7,19.7,1.1,39-8c19.3-9.1,33.2-20.3,31-25
		C322.6,1388.6,305.1,1392.2,285.8,1401.3z"/>
	<path class="st0" d="M254.8,1426.3l22.6,47.9c0,0,18.2-0.5,38.1-9.9s32.6-21.7,32.6-21.7l-23.3-49.3"/>
	<path class="st0" d="M266.2,1429.8c0.3,2.6,0.6,5.3,1.7,7.7c1.2,2.4,3.4,4.4,6.1,4.5c2.6,0.1,5.4-2.3,4.9-4.9c-0.3-2-2.2-4.1-1-5.7
		c1.3-1.8,4.1-0.3,5.6,1.5c2.7,3.3,5,6.9,6.7,10.8c0.7,1.7,1.5,3.6,3.2,4.3c2.7,1.1,5.5-2.1,5.6-5s-1.4-5.6-2.2-8.4
		s-0.6-6.4,1.9-7.9c2.2-1.3,5.1-0.3,7.2,1.2c2,1.6,3.7,3.7,5.9,4.9c2.3,1.2,5.5,1.3,7-0.8c1.6-2.4-0.1-5.7-1.9-8s-3.9-5.2-2.6-7.9
		c0.7-1.4,2.1-2.3,3.4-3.1c1.3-0.8,2.7-1.7,3.3-3.2c0.6-1.5-0.3-3.5-1.8-3.6"/>
</g>
<g>
	<path class="st0" d="M196.3,1501.6c-6.3-3.8-14.8-2.4-20.8,1.8c-6.1,4.2-10,10.8-12.9,17.6c-5.6,13.5-17.1,43.8-17,43.7
		c-0.3,2.9,37.5-10.2,43.2-16.5c6.1-6.8,12.3-13.8,14.9-22.5C206.3,1517,204.1,1506.2,196.3,1501.6z"/>
	<path class="st0" d="M185.7,1499.6c17.6-10,41.7-7.4,55.7,7.2c14.8,15.4,16.5,36.8,11,56.5c-2.7,9.6-4.8,11.9-0.4,21
		c4.3,8.9,14,12.8,11.8,24.7c-1,5.5-5.6,10.5-11.2,11c-5.6,0.4-11.3-4.8-10.4-10.3c2.4,6.9-4,15.3-11.3,14.8s-12.5-9.6-9.2-16.1
		c-1.3,6.4-9.8,9.6-15.6,6.5c-5.8-3-8.3-10.6-6.8-16.9c1.5-6.4,6.4-11.5,12-14.9c9.6-5.8,16.4-4.1,20.3-15.5
		c2.6-7.6,0.5-17.5-3.7-24.1c-5.5-8.8-15.6-14.4-25.9-14.6c-0.4,1.4-0.8,2.7-1.2,4.1"/>
	
		<ellipse transform="matrix(0.8899 -0.4562 0.4562 0.8899 -671.2338 252.0371)" class="st0" cx="186.4" cy="1516.2" rx="5" ry="4.9"/>
	<path class="st0" d="M218.6,1533c6.5-9.8,9.6-21.9,8.5-33.6"/>
	<path class="st0" d="M228.8,1544.5c9.8,0.5,19.7-4.1,25.6-11.9"/>
	<path class="st0" d="M233.1,1562.5c3.3,1.1,6.7,2.3,10.2,2.2c3.5-0.1,7.2-1.6,8.9-4.6"/>
</g>
<path class="st0" d="M288.6,1595.6c13.7-31.2,5.1-70.9-20.3-93.6c-7.4-6.6-16-11.9-23-19s-12.3-16.8-10.9-26.6"/>
<line class="st0" x1="350.9" y1="1645.5" x2="350.9" y2="1615.4"/>
<line class="st0" x1="402.3" y1="1670.4" x2="431.1" y2="1659.2"/>
<line class="st0" x1="383.8" y1="1652.7" x2="402.3" y2="1618.9"/>
<line class="st0" x1="350.9" y1="1605.2" x2="350.9" y2="1595.6"/>
<line class="st0" x1="406.8" y1="1611.4" x2="412.5" y2="1602.4"/>
<path class="st0" d="M439.4,1656.6"/>
<line class="st0" x1="439.4" y1="1656.6" x2="452.1" y2="1651.3"/>
<g>
	<path class="st0" d="M845,1818.4c-12-11.8-23.9-23.5-35.9-35.3c6-8.6,10.8-16.8,16.8-25.4"/>
	<path class="st0" d="M828.1,1800.9c7-8.1,14-16.2,20.9-24.3c-1,1.7-2,3.4-3,5.1"/>
	
		<ellipse transform="matrix(0.9422 -0.335 0.335 0.9422 -541.2321 392.1441)" class="st0" cx="866.1" cy="1764.9" rx="12.1" ry="11.5"/>
	
		<ellipse transform="matrix(0.9422 -0.335 0.335 0.9422 -531.6836 399.5088)" class="st0" cx="892.2" cy="1741" rx="15.7" ry="13.7"/>
	<path class="st0" d="M882.9,1656.2c20,22.2,59.1,64.9,58.7,63.9"/>
	<path class="st0" d="M918.2,1697.2c-2.4,4.8-4.8,9.6-5.6,14.9s0.2,11.1,3.9,14.9c3.3,3.4,8.6,4.7,13.1,3.3
		c4.5-1.4,8.1-5.5,8.9-10.2"/>
</g>
<path class="st0" d="M411.1,1464.1c24-5.6,45.5-21.4,58-42.6c6.8-11.5,11.1-24.9,9.3-38.1c-3-23.1-24.2-40.8-46.9-45.6
	c-11.4-2.4-24-2-33.8,4.3c-9.4,6.1-15,17.4-14.2,28.6s8,21.6,18.2,26.2c9.2,4.2,21,3.4,28.3-3.6s8.1-20.3,0.4-27"/>
<path class="st0" d="M511.7,1365.5c5-50.3,28.1-98.6,64.2-134"/>
<path class="st0" d="M601,1351.5c8.6,45.1,17.8,91.6,43.7,129.6c4.5,6.5,9.6,12.9,16.4,16.9s15.7,5.3,22.6,1.4"/>
<g>
	<path class="st0" d="M372.9,1099.2c0,0,59.9,56.7,116.8,2.2c56.9-54.4,3-116.8,3-116.8L372.9,1099.2z"/>
	<line class="st0" x1="476.6" y1="1000" x2="508.7" y2="902.9"/>
	<line class="st0" x1="463.4" y1="1012.7" x2="468.8" y2="918.8"/>
</g>
<g>
	
		<rect x="793.4" y="1360.8" transform="matrix(0.9528 -0.3036 0.3036 0.9528 -391.498 331.3294)" class="st0" width="152.8" height="127.8"/>
	<line class="st0" x1="768.7" y1="1379.5" x2="900.8" y2="1297.6"/>
	<polyline class="st0" points="822.3,1345.7 813,1332.4 849.1,1311.4 857.5,1324.5 	"/>
	<line class="st0" x1="820.9" y1="1491.5" x2="800.9" y2="1429"/>
	<line class="st0" x1="797.6" y1="1418.5" x2="791.9" y2="1400.9"/>
	<path class="st0" d="M922.1,1339.4c14.6,0.6,29.2-7.4,36.6-19.9s7.4-29.2-0.2-41.7c15.1-12.8,28.4-29.5,30.4-49.1
		c2-19.6-11.5-41.5-31.2-42.9c-1.5-18.5-12.8-35.8-29-44.8c-16.2-9-36.9-9.2-53.4-0.8c-6.5,3.3-12.5,8-19.4,10.3
		c-7.8,2.5-16.2,1.8-24.3,2.8c-18.4,2.1-35.5,13.4-44.9,29.5c-9.3,16-10.6,36.5-3.3,53.5c-10,7.2-20.3,17.2-19.6,29.6
		c0.8,13.4,15.1,22.8,28.5,23c13.4,0.3,26-6.1,38-12.2c5.9,9.1,16.8,14.6,27.6,14c10.8-0.6,21-7.3,25.9-16.9
		c7.8,7.8,13.1,13.6,17.2,23.8"/>
	<path class="st0" d="M792.9,1226.2c-4.2-11.6-2.7-25.2,4-35.6c6.7-10.4,18.4-17.4,30.7-18.4"/>
	<path class="st0" d="M876.1,1150.2c12.6-8.6,30.7-7.8,42.5,1.9"/>
	<polyline class="st0" points="930.5,1406.2 945,1453.5 923.8,1460.2 	"/>
</g>
<g>
	<g>
		<path d="M939.3,1573.2l-16.4-11.1c-3.4-2.3-7.4-3.1-11.4-2.3c-4,0.8-7.4,3-9.7,6.4l-15.8,23.3c-2.3,3.4-3.1,7.4-2.3,11.4
			c0.8,4,3,7.4,6.4,9.7l16.3,11.1c2.6,1.8,5.5,2.6,8.5,2.6c4.9,0,9.7-2.3,12.7-6.7l15.8-23.3c2.3-3.4,3.1-7.4,2.3-11.4
			C945,1578.9,942.7,1575.4,939.3,1573.2z M940.1,1592l-15.8,23.2c-3.5,5.1-10.5,6.5-15.5,3c0,0,0,0,0,0l-16.4-11.1
			c-2.5-1.7-4.1-4.2-4.7-7.1c-0.6-2.9,0.1-5.9,1.7-8.4l15.8-23.3c1.7-2.5,4.2-4.1,7.1-4.7c0.7-0.1,1.4-0.2,2.1-0.2
			c2.2,0,4.4,0.7,6.3,1.9l16.4,11.1c2.5,1.7,4.1,4.2,4.7,7.1C942.3,1586.6,941.7,1589.6,940.1,1592z"/>
	</g>
	<g>
		<path d="M1039.6,1641.3l-16.4-11.1c-3.4-2.3-7.4-3.1-11.4-2.3c-4,0.8-7.4,3-9.7,6.4l-15.8,23.3c-4.7,7-2.9,16.4,4,21.1l16.3,11.1
			c0,0,0,0,0,0c2.6,1.7,5.5,2.6,8.5,2.6c1,0,1.9-0.1,2.9-0.3c4-0.8,7.4-3,9.7-6.4l15.8-23.3c2.3-3.4,3.1-7.4,2.3-11.4
			C1045.2,1647,1043,1643.6,1039.6,1641.3z M1040.4,1660.2l-15.8,23.3c-1.7,2.5-4.2,4.1-7.1,4.7c-2.9,0.6-5.9-0.1-8.4-1.7
			l-16.4-11.1c-5.1-3.4-6.4-10.4-3-15.5l15.8-23.3c1.7-2.5,4.2-4.1,7.1-4.7c2.9-0.6,5.9,0.1,8.4,1.7l16.4,11.1
			c2.5,1.7,4.1,4.2,4.7,7.1C1042.6,1654.7,1042,1657.7,1040.4,1660.2z"/>
	</g>
	<g>
		<path d="M971.4,1593.9c-12.3-8.4-29.9-4-39.3,9.7s-6.9,31.7,5.5,40.1c4.2,2.8,9,4.3,14.1,4.3c2.2,0,4.5-0.3,6.8-0.9
			c7.4-1.9,13.9-6.5,18.4-13.1s6.4-14.4,5.4-21.9C981.3,1604.5,977.4,1598,971.4,1593.9z M973.5,1631.8c-3.9,5.8-9.6,9.9-16.1,11.5
			c-6.3,1.6-12.6,0.6-17.6-2.8c-10.5-7.1-12.5-22.6-4.4-34.5c5.3-7.9,13.8-12.2,21.9-12.2c4.2,0,8.3,1.2,11.8,3.6
			c5.1,3.4,8.3,8.9,9.2,15.4C979.2,1619.2,977.5,1626,973.5,1631.8z"/>
	</g>
	<g>
		<path d="M1009.6,1627l-20.7-14.1c-0.4-0.3-1-0.4-1.5-0.3c-0.5,0.1-1,0.4-1.3,0.8l-24.7,36.3c-0.3,0.4-0.4,1-0.3,1.5
			c0.1,0.5,0.4,1,0.8,1.3l20.7,14.1c0.3,0.2,0.7,0.3,1.1,0.3c0.6,0,1.3-0.3,1.7-0.9l24.7-36.3
			C1010.7,1628.8,1010.5,1627.6,1009.6,1627z M983.2,1662.2l-17.4-11.8l22.4-33l17.4,11.8L983.2,1662.2z"/>
	</g>
	<g>
		<path d="M1069.6,1661.5c-5.6-3.8-12.5-4.7-19.6-2.7c-7,2-13.2,6.7-17.6,13.2c-4.4,6.5-6.5,14-5.8,21.3c0.7,7.4,4.2,13.5,9.7,17.3
			c3.7,2.5,8,3.7,12.4,3.7c9.1,0,18.7-5.1,24.9-14.2C1082.7,1686.5,1081,1669.2,1069.6,1661.5z M1070.3,1697.8
			c-7.9,11.7-22.2,15.9-31.7,9.5c-4.6-3.1-7.4-8.2-8-14.3c-0.6-6.3,1.2-12.9,5.1-18.6c3.9-5.7,9.4-9.8,15.4-11.6
			c2.1-0.6,4.1-0.9,6.1-0.9c3.7,0,7.2,1,10.2,3C1076.9,1671.3,1078.2,1686.1,1070.3,1697.8z"/>
	</g>
	<g>
		<path d="M896.6,1577.6l-22.3-16c-0.9-0.6-2.1-0.4-2.8,0.5c-0.6,0.9-0.4,2.1,0.5,2.8l22.3,16c0.4,0.3,0.8,0.4,1.2,0.4
			c0.6,0,1.2-0.3,1.6-0.8C897.7,1579.5,897.5,1578.2,896.6,1577.6z"/>
	</g>
	<g>
		<path d="M1127.4,1723.3c-0.2-1.1-1.2-1.8-2.3-1.7c0,0-0.1,0-0.1,0v4c0.2,0,0.5,0,0.7-0.1
			C1126.8,1725.4,1127.5,1724.4,1127.4,1723.3z"/>
		<path d="M1118.5,1715.6c-1,2.3-0.5,5.2,1.1,7.4c1.4,1.8,3.3,2.8,5.3,2.7v-4c-1.1,0.1-1.9-0.8-2.2-1.1c-0.8-1-1-2.4-0.6-3.3
			c0.5-1.1,1.5-1.9,2.8-2.3v-4.1C1122.1,1711.2,1119.6,1713,1118.5,1715.6z"/>
		<path d="M1121,1731.2c-17.2-9.9-32.8-19.2-49.3-31.9c-0.9-0.7-2.1-0.5-2.8,0.4c-0.7,0.9-0.5,2.1,0.4,2.8
			c16.7,12.9,32.4,22.2,49.7,32.2c1.7,1,3.7,2.1,6,2.7v-4.2C1123.7,1732.7,1122.4,1732,1121,1731.2z"/>
	</g>
</g>
<path class="st0" d="M1019,1593.6c-15.7-10.2-35.2-12.9-51.9-21.4s-31.2-27.9-23.9-45.1c5-11.7,20.1-17.8,31.8-13
	s18.1,19.8,13.3,31.6"/>
<path class="st0" d="M1004.4,1496.4c16.8-19.7,22.4-48.3,14.4-72.8c-4.2-12.9-11.8-24.4-15.6-37.4s-3-28.8,7.3-37.6"/>
<ellipse class="st0" cx="1060.5" cy="1546.7" rx="10" ry="10.1"/>
<ellipse class="st0" cx="1085.7" cy="1609.2" rx="20.3" ry="17.2"/>
<ellipse class="st0" cx="898.8" cy="1538.3" rx="10.4" ry="8.4"/>
<g>
	<path class="st0" d="M1018.8,1760.4c-12.3,13.2-9.2,39.8-9.2,39.8s23.2-2.1,37.4-19.4c15.3-18.6,9.8-40.4,9.8-40.4
		S1031.1,1747.2,1018.8,1760.4z"/>
	<line class="st0" x1="1009.6" y1="1800.2" x2="1040.7" y2="1762.2"/>
</g>
<g>
	<g>
		<path d="M1109.2,1311.9c-7.2-16.2-5-41.1-4.2-48.4c3.7,0.9,11.8,3.5,20,9.4v-5c-10.8-7-20.7-8.7-21.4-8.8c-0.5-0.1-1.1,0-1.5,0.4
			c-0.4,0.3-0.7,0.8-0.8,1.3c-0.2,1.3-4.7,32.5,4.2,52.8c3.9,8.8,11.7,15.5,19.4,20.3v-4.8C1118.5,1324.7,1112.3,1319,1109.2,1311.9
			z"/>
	</g>
	<g>
		<path d="M1121.6,1288.4c-0.5-1-1.7-1.4-2.7-0.9c-1,0.5-1.4,1.7-0.9,2.7l7,13.4v-8.7L1121.6,1288.4z"/>
	</g>
</g>
<circle class="st0" cx="714.6" cy="1115.3" r="14.5"/>
<circle class="st0" cx="72.4" cy="2349.1" r="14.5"/>
<circle class="st0" cx="516.3" cy="2023.8" r="23.8"/>
<ellipse transform="matrix(0.3827 -0.9239 0.9239 0.3827 -1580.2693 1611.559)" class="st0" cx="415.8" cy="1988.3" rx="10.1" ry="10.1"/>
<polyline class="st0" points="459.3,2123.3 444,2080.1 417.6,2071.9 "/>
<polyline class="st0" points="450.8,2055.6 444,2080.1 425.9,2047.8 "/>
<g>
	<path class="st0" d="M145.3,1852.3c-8.2-7.8-19.4-13.4-30.7-12.2c-26.8,2.9-48.3,42.2-50.2,68.8c-1,13.7,10.4,25.4,19.2,36
		c9.7,11.7,21.3,22.8,35.8,27.2c14.2,4.3,30.5,1.6,42.5-7.3s19.5-23.6,19.5-38.5c0-16.6-8.3-31.8-16.5-46.2
		C159.3,1870.2,153.5,1860.1,145.3,1852.3z"/>
	<path class="st0" d="M133.2,1843c23.1,0.2,40.6,14.2,57.8,29.7s32.9,33.3,53.3,44.2c7.7,4.1,17.4,9.4,16.7,18.1
		c-0.3,4.4-3.4,8-6.7,10.9c-27.6,24.1-106.1,28.1-107.2,26.6"/>
	
		<ellipse transform="matrix(0.1357 -0.9908 0.9908 0.1357 -1787.9781 1758.2312)" class="st0" cx="113.7" cy="1903.9" rx="15.6" ry="9.2"/>
	<path class="st0" d="M102.3,1940.7c-5.3-4-10.4-8.5-14.3-13.9s-6.4-12-6.1-18.7c0.4-7.2,4-14,9.1-19.2c5-5.2,11.3-9,17.8-12.3
		c3.9-2,8-3.9,10.7-7.3s3.4-8.9,0.2-11.9"/>
	<path class="st0" d="M103,1924.1c3.1,2.6,6.3,5.2,10,6.6c3.8,1.4,8.4,1.3,11.5-1.2c2.3-1.9,3.5-4.8,4.4-7.7
		c2.8-9.4,2.9-19.6,0.2-29.1c-1.2-4.2-2.8-9.2,0-12.7"/>
	<path class="st0" d="M139.5,1910.6c0.3,5.1,0.1,10.3-1.2,15.3s-3.8,9.7-7.5,13.2c-2.8,2.6-6.3,4.5-10.1,5.3"/>
	<path class="st0" d="M157.2,1887.6c10.3,18.3,9.4,42.4-2.2,59.9"/>
	<path class="st0" d="M175.7,1876.5c15.8,13.6,31.6,27.2,47.3,40.9c4,3.5,9.3,7.1,14.1,4.9"/>
</g>
<path class="st0" d="M637.6,642.4c11.5-14.1,23.6-34.5,26.9-58s-3.2-48.2-17.6-66.9"/>
<path class="st0" d="M661.6,493c20.5,26.7,32.6,59.7,34.1,93.3"/>
<path class="st0" d="M524.6,780.7c44.7-64.4,104.9-118,174.1-154.9"/>
<path class="st0" d="M750.6,555.1c53.3-39,106.6-78,159.9-117.1"/>
<path class="st0" d="M738.2,596.4c31.9-22.3,63.7-44.7,95.6-67"/>
<path class="st0" d="M430.5,334.4c16.4-5.1,28.5-18.7,38.8-32.5s19.8-28.7,34-38.3c14.2-9.6,34.9-12.4,47.8-1.1
	c8,6.9,11.5,17.8,12.7,28.3c2.2,19.3-3.6,41.2-20.2,51.3"/>
<path class="st0" d="M472.8,260c19.1-18.7,47.5-27.4,73.9-22.6"/>
<g>
	<path class="st0" d="M375.2,216.7c0,0,27.8,39.2,66.9,21.9c44.2-19.5,28.9-64.2,28.9-64.2L375.2,216.7z"/>
	<line class="st0" x1="414.9" y1="264.3" x2="481.9" y2="234.7"/>
	<line class="st0" x1="399.4" y1="237.2" x2="472" y2="205.1"/>
</g>
<g>
	<path class="st0" d="M844,1852.4c-2.1,0-3.8,1.6-3.8,3.6c0,2,1.7,3.6,3.8,3.6s3.8-1.6,3.8-3.6C847.8,1854,846,1852.4,844,1852.4z"
		/>
	<circle class="st0" cx="863.4" cy="1846.9" r="10.5"/>
</g>
<path class="st0" d="M604.3,960.1c-80.2,31.2-50,109-50,109l158.9-62.5C713.2,1006.6,679.9,930.7,604.3,960.1z"/>
<line class="st0" x1="556.7" y1="1075.3" x2="715.9" y2="1013.5"/>
<line class="st0" x1="592.6" y1="956.6" x2="611.8" y2="949.2"/>
<path class="st0" d="M560.7,1043.9c-5.1-11.8-3-26.4,5.2-36.3"/>
<path class="st0" d="M645.9,938.8c2.7-13.9,5.3-28.3,2.1-42.1c-1.1-4.5-2.8-9-6-12.4s-7.9-5.5-12.5-4.6s-8.4,5.3-7.8,9.9
	s6.4,7.9,10.4,5.4"/>
<path class="st0" d="M620.4,933.9c-14.2-6.2-22.9-23-19.7-38.1c0.7-3.4,1.9-6.6,2.4-10s0.2-7.1-1.9-9.9"/>
<path class="st0" d="M576.2,961.7c-4.9-4.2-9.7-8.7-13.5-14s-6.3-11.6-6.1-18.1c0.1-6.5,3.3-13.1,8.9-16.4"/>
<path class="st0" d="M572.5,933.6c-1.9-5.2-1.1-11.3,2.1-15.9c2.1-3.1,5.1-5.4,7.2-8.4c3.3-4.7,4.2-11,2.3-16.4"/>
<path class="st0" d="M555,980.8c1.3-6.1,2.6-12.3,1.9-18.4c-0.7-6.2-3.9-12.4-9.5-15.1c-2.4-1.2-5.5-1.5-7.6,0.2
	c-2,1.7-1.4,5.9,1.2,6.2"/>
<path class="st0" d="M624.5,863.8c-2.9-14.1,8.8-27.6,22.2-32.9c13.4-5.2,28.2-4.7,42.5-6s29.7-5.5,38.2-17"/>
<path class="st0" d="M733.5,846.1c8.1-3.7,16.9-5.9,24.9-9.7c8.1-3.8,15.7-9.7,18.7-18.1c3-8.4-0.1-19.4-8.4-22.7
	c-3.1-1.2-6.8-1.2-9.6,0.6c-2.8,1.9-4.2,5.8-2.7,8.8s6.2,3.9,8.4,1.4"/>
<path class="st0" d="M651.3,859c13.7-6.6,29.8-5.4,44.7-2.1c14.8,3.2,29.4,8.4,44.5,9.5c15.2,1.1,31.7-2.8,41.4-14.5"/>
<path class="st0" d="M826.4,819.6c24.5-9.9,48.1-24.9,61.6-47.6s14.5-54.2-2.8-74.1"/>
<path class="st0" d="M907.7,700c-9.2-16.4-3.3-37.2,5.5-53.8c8.8-16.7,20.5-32.5,23.1-51.2c3.2-23.4-10.3-48.1-31.7-57.9"/>
<path class="st0" d="M919,585.1c-4.2-11-8.3-22-14.6-31.9s-14.9-18.6-25.8-23.1"/>
<path class="st0" d="M231.1,2023.8c-3.4,0.2-6.6,1.7-9.6,3.4c-15.1,8.6-27.4,22.3-34.3,38.3c-1.9,4.4-2.8,9.3-2.4,14.1
	c0,0,0,0.1,0,0.1c0.3,3.4,2.4,6.8,5.7,7.5c3,0.6,5.9-1.1,8.4-2.9c16-11.4,29.5-26.4,39-43.6c2.2-3.9,4.1-8.8,2-12.7
	C238.2,2025,234.5,2023.6,231.1,2023.8z"/>
<path class="st0" d="M308.2,2019.7c-15.6-7.4-33.6-9.7-50.6-6.3c-5,1-9.6,3.1-13.5,6.3c0,0-0.1,0-0.1,0.1c-2.6,2.1-4.2,5.8-2.8,8.9
	c1.2,2.8,4.3,4.2,7.2,5.2c18.5,6.6,38.5,9,58.1,7c4.4-0.4,9.5-1.6,11.5-5.6c1.6-3.1,0.6-6.9-1.5-9.6
	C314.4,2022.9,311.3,2021.2,308.2,2019.7z"/>
<path class="st0" d="M180.1,2087c-2.7,1.4-4.9,3.9-6.8,6.5c-9.8,13.2-15.7,30.3-16.7,47.7c-0.3,4.8,0.5,9.6,2.2,14.1
	c0,0,0,0.1,0,0.1c1.2,3.1,3.9,5.6,6.8,5.1c2.6-0.5,4.4-3.1,5.9-5.6c9.7-16.2,16.2-34.9,18.9-54.3c0.6-4.4,0.8-9.6-2.1-12.6
	C186.2,2085.7,182.8,2085.7,180.1,2087z"/>
<path class="st0" d="M159.5,2159.9c-2.7-1.4-6-1.7-9.2-1.8c-17-0.5-34.8,4.7-49.8,14.3c-3.3,2.1-6.1,4.8-8.3,7.9
	c-0.3,0.4-0.6,0.8-0.9,1.2c-1.9,2.7-2.4,6.4-0.3,8.5c1.9,1.9,5.1,1.9,8,1.7c18.8-1.3,37.8-6.7,55.3-15.6c3.9-2,8.3-4.8,9.1-8.9
	C164,2164.2,162.2,2161.4,159.5,2159.9z"/>
<g>
	<g>
		<polygon class="st0" points="93.2,1661.1 237.2,1729.3 265.2,1681.2 130.5,1592.8 		"/>
		
			<rect x="58.5" y="1611.8" transform="matrix(0.479 -0.8778 0.8778 0.479 -1370.4503 935.1628)" class="st0" width="88.1" height="20.7"/>
	</g>
	<polyline class="st0" points="91.6,1620.7 68.9,1603.8 35.8,1625.4 	"/>
</g>
<g>
	<path class="st0" d="M444.1,2399.9c5.4,6.9,15.1,9.6,23.7,8s16.1-7.1,21.8-13.8c3.4-4,6.2-8.5,7.4-13.7c1.2-5.2,0.6-10.7-2.3-15
		c-3.8-5.7-10.9-8.2-17.7-9c-8.5-1-17.5,0.3-24.9,4.7c-7.4,4.4-13.1,11.9-14.2,20.5c-1,8.5,2.9,17.8,10.4,21.9"/>
	<path class="st0" d="M499.9,2373.2c20-11.3,37.4-21.8,59.4-28.2c4.4,4.4,13.2,1.7,14.4-4.3c1.2-6.1-5.9-12-11.6-9.6
		c2.3-1.8,3.5-4.9,2.8-7.6c-0.7-2.8-3.5-5-6.3-4.6c-3.2,0.4-5.2,3.3-7.1,6c-14.2,20.3-39.4,25.5-62.3,35.1"/>
</g>
<ellipse class="st0" cx="41.7" cy="1693.5" rx="10.1" ry="9.7"/>
<circle class="st0" cx="1077.1" cy="1181.2" r="28"/>
<ellipse transform="matrix(0.3827 -0.9239 0.9239 0.3827 -1121.7147 838.2563)" class="st0" cx="66.4" cy="1258.5" rx="6.9" ry="6.9"/>
<path class="st0" d="M18.6,1448.1c-3-11.9,0.2-24.6,5.5-35.7s12.4-21.2,17.9-32.3c2.4-4.8,4.5-10.1,3.3-15.3s-6.8-9.7-11.7-7.8"/>
<path class="st0" d="M162.3,1231c-20.1,27.4-45.4,50.9-74.2,68.8"/>
<path class="st0" d="M93.5,1233.2c7.9-4.1,15.9-8.4,22.6-14.2c6.8-5.9,12.1-13.8,13.4-22.6c0.4-2.9,0.2-6.3-2.2-8.1
	c-2.3-1.8-5.6-1.2-7.9,0.5c-2.3,1.6-3.7,4.2-5.1,6.7c-1.1,2-2.3,4.2-1.8,6.6c0.4,2.3,3.3,4.1,5.1,2.7"/>
<path class="st0" d="M115.1,1400.3c-0.5-9.9,5.9-19,13.9-24.8s17.6-8.9,26.8-12.4c24.7-9.4,48.1-22.3,69.3-38.3"/>
<path class="st0" d="M175.4,1408.1c28.5-6,58.5-12.7,79.8-32.5c2.5-2.3,4.8-4.8,6-7.9c1.1-3.1,0.8-7.1-1.7-9.3
	c-2.3-2.1-5.8-2.3-8.6-1.3s-5.2,3.1-7.3,5.4c-1.8,1.9-3.5,4.4-2.9,6.9c0.7,2.5,5.2,3.2,5.5,0.6"/>
<path class="st0" d="M285.5,1373.7c17.4-3.1,35.9,0,51.4,8.6"/>
<g>
	<g>
		<path d="M117.2,1433.9c-4.5,0.2-8.8,1.4-12.9,2.6c-1.4,0.4-2.8,0.8-4.1,1.1c-6.9,1.7-14.2,2.5-21.2,3.2
			c-8.8,0.9-17.8,1.8-26.4,4.6c-16,5.1-30.4,19.8-28,35.9c-5.1,2.7-22.1,13.1-17.5,28.7c2.3,7.6,7.9,14.7,12.9,21
			c0.7,0.8,1.3,1.7,1.9,2.5c9.9,12.8,21.9,26.6,38.3,28.4c1.1,0.1,2.1,0.2,3.2,0.2c11.2,0,22.9-6,31.8-16.4
			c8.7-10.1,13.8-22.9,18.2-34.2c6.3-15.7,12.6-31.5,19-47.3l0.2-0.6c2.8-7.2,5.5-15.4,1.4-22.2
			C130.4,1435.6,123,1433.7,117.2,1433.9z M128.8,1462.2l-0.2,0.6c-6.3,15.8-12.6,31.6-19,47.3c-4.4,11-9.3,23.4-17.6,33
			c-8.9,10.4-20.7,15.9-31.6,14.8c-14.8-1.6-25.7-14.1-35.5-26.8c-0.6-0.8-1.3-1.6-2-2.5c-4.7-6-10.1-12.8-12.2-19.7
			c-4.3-14.6,16.5-24.5,16.7-24.6c0.8-0.4,1.3-1.3,1.1-2.2c-3.1-14.5,10.3-28,25.1-32.8c8.2-2.7,17.1-3.6,25.6-4.5
			c7.2-0.7,14.6-1.5,21.8-3.3c1.4-0.4,2.8-0.8,4.3-1.2c3.9-1.1,8-2.3,12-2.5c0.2,0,0.4,0,0.7,0c4.3,0,9.9,1.5,12.5,5.7
			C133.7,1448.7,131.3,1455.9,128.8,1462.2z"/>
	</g>
	<g>
		<path d="M66.8,1470.7c-11.7,0-21.3,11.1-21.3,24.7c0,13.6,9.6,24.7,21.3,24.7c11.7,0,21.3-11.1,21.3-24.7
			C88.1,1481.8,78.5,1470.7,66.8,1470.7z M66.8,1516.1c-9.5,0-17.3-9.3-17.3-20.7s7.8-20.7,17.3-20.7c9.5,0,17.3,9.3,17.3,20.7
			S76.3,1516.1,66.8,1516.1z"/>
	</g>
	<g>
		<path d="M70.8,1476.9c-1-0.4-2.2,0.1-2.6,1.2c-0.4,1,0.1,2.2,1.2,2.6c4.8,1.8,8.4,6.7,8.8,11.8c0.1,1,1,1.8,2,1.8
			c0.1,0,0.1,0,0.2,0c1.1-0.1,1.9-1.1,1.8-2.2C81.6,1485.4,77.1,1479.3,70.8,1476.9z"/>
	</g>
	<g>
		<path d="M120.6,1464.4c-1-0.4-2.2,0.1-2.6,1.2c-3.5,9.3-7.2,19.2-11.2,30.2c-0.4,1,0.2,2.2,1.2,2.6c0.2,0.1,0.5,0.1,0.7,0.1
			c0.8,0,1.6-0.5,1.9-1.3c4-11,7.7-20.9,11.2-30.2C122.2,1466,121.6,1464.8,120.6,1464.4z"/>
	</g>
	<g>
		<path d="M147.2,1434.9c-0.9,0.6-1.2,1.9-0.5,2.8c4.1,6.1,4.5,14.9,1.2,24.1c-2,5.4-4.9,10.5-7.7,15.4c-1.5,2.7-3.1,5.4-4.6,8.2
			c-5.3,10.4-7.1,19.3-5.3,27.3c0.2,0.9,1,1.6,1.9,1.6c0.1,0,0.3,0,0.4,0c1.1-0.2,1.8-1.3,1.5-2.4c-1.6-7,0-15,4.9-24.5
			c1.4-2.7,3-5.4,4.5-8.1c2.9-5.1,5.9-10.3,8-16.1c3.8-10.4,3.2-20.5-1.6-27.7C149.3,1434.6,148.1,1434.3,147.2,1434.9z"/>
	</g>
	<g>
		<path d="M6.1,1560.9c-0.4,1,0.1,2.2,1.1,2.6c0.2,0.1,0.5,0.2,0.8,0.2c0.8,0,1.5-0.5,1.8-1.2c3.9-9.4,0.7-19.8-2.8-26.7
			c-1.4-2.9-3-5.7-4.5-8.4c-0.8-1.5-1.7-3-2.5-4.4v8.2c1.2,2.1,2.4,4.2,3.4,6.4C6.4,1543.7,9.4,1552.9,6.1,1560.9z"/>
	</g>
</g>
<g>
	<path class="st0" d="M1031.8,619.2c-18.7-2.9-35.3,8.5-48.3,20.8c-33.1,31.2-57.1,71.8-68.8,116.5c0,0-19.7,36.3-35.5,63.8
		c-3.5,6-3.3,13.6,0.9,19.2c7,9.4,20.4,15.1,32,13.7c16.1-2,28.5-13.9,37-27.2c8.5-13.2,14.2-28.2,23.4-41
		c14.2-19.9,35.7-33,55-48.1c19.3-15,37.7-33.7,41.8-58.3S1057.3,623.2,1031.8,619.2z"/>
	<path class="st0" d="M929.6,816.8c-2.8,2.8-5.7,5.6-9.4,7.2c-3.7,1.6-8.4,1.6-11.8-1c-4.1-3.1-5-9-3.5-13.6s4.7-8.3,7.6-12
		c14.1-18.7,20.2-42.3,29.6-63.9c12.4-28.6,31.1-54.2,54.4-74.6c2.8-2.4,5.8-4.9,9.6-5.4c5-0.6,10.2,2.5,13.5,6.6
		c6.5,8,7,19.3,3.4,28.2c-3.6,8.9-10.7,15.8-18.3,21.6s-15.9,10.8-22.9,17.3C956.6,750.6,950.7,789.7,929.6,816.8"/>
	<path class="st0" d="M989.5,687.2c-8.1,9.2-12.4,18.5-9.8,20.8c2.7,2.3,11.3-3.2,19.4-12.4c8.1-9.2,12.4-18.5,9.8-20.8
		S997.6,678.1,989.5,687.2z"/>
	<line class="st0" x1="884.9" y1="844.5" x2="930.4" y2="884.5"/>
	<path class="st0" d="M1055.7,633l45.2,39.7c4,3.5,5.8,8.8,4.9,14c-5.1,28.5-8.8,60.9-31.9,76.3c-9.9,6.6-21.5,10.6-31.5,17
		c-14,8.9-24.6,22.1-34.8,35.1c-14.7,18.6-29.5,37.2-44.2,55.8c-3.7,4.6-7.4,9.3-12.5,12.5s-11.7,4.5-17.5,2.1"/>
</g>
<circle class="st0" cx="725.2" cy="926.8" r="42.3"/>
<polygon class="st0" points="725.2,904.9 723.1,916.5 720.3,923.5 706.5,929.5 721.8,933.6 729.6,944.5 730.8,930.3 745.8,923 
	733.5,917.5 "/>
<ellipse class="st0" cx="200" cy="2157.3" rx="9.2" ry="7.8"/>
<circle class="st0" cx="221" cy="2205.8" r="11.8"/>
<path class="st0" d="M245.2,700.7c-4.8-1.4-9.9,0.1-14.2,2.5c-11.8,6.4-19.7,19.4-20,32.8c0,0,0,14.3,15.6,16.4
	c6.2,0.9,9.6-1.7,14.6-5.4s8.5-9.1,11.1-14.8c2.5-5.6,4.4-11.7,3.6-17.8C255.1,708.4,251.1,702.4,245.2,700.7z"/>
<path class="st0" d="M226.8,744.8c-5.6-10.4-2.7-24.5,6.4-32"/>
<g>
	<polygon class="st0" points="946.2,534.2 986.5,580.7 1114.5,498.1 1078.4,445.8 	"/>
	<polyline class="st0" points="1034.9,441.4 1054,421.4 1078.4,445.8 	"/>
	<line class="st0" x1="946.2" y1="534.2" x2="1014.1" y2="463.2"/>
	<line class="st0" x1="971.4" y1="537.7" x2="1074.5" y2="472.6"/>
	<line class="st0" x1="983.9" y1="555.2" x2="1085" y2="488.5"/>
	<circle class="st0" cx="1027.1" cy="454.2" r="13.6"/>
	<path class="st0" d="M1023.4,445.5c-4.6-10.5-6-22.4-4.1-33.6"/>
</g>
<g>
	<g>
		
			<ellipse transform="matrix(0.7071 -0.7071 0.7071 0.7071 -452.9008 1022.238)" class="st0" cx="1007.5" cy="1057.8" rx="88.7" ry="88.7"/>
		
			<ellipse transform="matrix(0.9239 -0.3827 0.3827 0.9239 -327.0465 465.8616)" class="st0" cx="1007.5" cy="1055" rx="30.7" ry="30.7"/>
		<path class="st0" d="M1066,1077.8"/>
		<path class="st0" d="M1028.2,1127.6"/>
		<path class="st0" d="M1015.8,1117.7"/>
		<path class="st0" d="M988,1117.7"/>
		<path class="st0" d="M973.2,1122.7"/>
		<path class="st0" d="M1053.1,1088.7"/>
	</g>
	<path class="st0" d="M1060.2,1033.5c-2.4-6.3,6-13,3.8-19.4c-1.9-5.4-9.6-5.8-15.2-4.3s-12.3,3.5-16.6-0.4
		c-5.9-5.2-2.7-17.3-9.8-20.5c-10.4-4.6-18.3,18.7-28.5,13.6c-3.2-1.6-4.6-5.6-7.4-7.8c-5-4-13-0.7-16.3,4.8
		c-3.2,5.6-17.7,33.9-22.4,39.7c-4.8,6.1-7.8,14.1-6,21.6c0.9,4.2,3.3,8.1,3.2,12.3c-0.1,7.4-7.4,15.4-2.9,21.3
		c5.2,6.9,16.9-1,24.6,2.8c4,2,5.8,6.7,8,10.7c6.5,12,34.9,11.1,39.8,10.5c4.9-0.6,9.6,1.6,14.5,2.3c10.5,1.5,21-4.3,27.2-12.9
		c8.9-12.4,9.4-29,15.7-43c3.2-7,7.6-15.8,2.4-21.5C1070.3,1039,1062.3,1038.9,1060.2,1033.5z"/>
</g>
<path class="st0" d="M1076.4,1444.1c-19-27.4-31.5-60.6-28.3-93.8c1.6-16.5,7-32.8,6-49.4s-11.3-34.5-27.8-36.5"/>
<path class="st0" d="M1036.4,1214.6c17.6,4.6,30.9,19.8,37.6,36.8c6.6,16.9,7.5,35.5,7.2,53.7c-0.2,13.9-0.9,27.9,2.2,41.4
	s10.8,26.7,23.3,32.8"/>
<g>
	
		<ellipse transform="matrix(0.6041 -0.7969 0.7969 0.6041 65.7408 295.6934)" class="st0" cx="330.5" cy="81.7" rx="27.7" ry="101.4"/>
	<ellipse transform="matrix(0.6041 -0.7969 0.7969 0.6041 65.7411 295.6938)" class="st0" cx="330.5" cy="81.7" rx="13.8" ry="64"/>
	<path class="st0" d="M249.7,20.4c0,0-98.6,102.1,0.3,172.4s161.2-50,161.2-50"/>
	<path class="st0" d="M232.5,179.7c-11,20.3-26.2,38.1-44.5,52.2c-3.9,3-8.1,5.9-11.2,9.8c-3.1,3.9-5.1,8.9-4,13.9
		c1.2,5.7,6.6,10.4,12.4,10.7s11.4-3.6,12.9-9.1c-0.8,3.7-1.7,7.6-1,11.4s3.3,7.7,7.1,8.6c3.7,0.9,7.5-1,9.7-3.8s3.3-6.5,4.4-10
		c3.6-12.5,7-25,12.8-36.6c5.8-11.5,14.3-22,25.9-27.9"/>
	<path class="st0" d="M241.9,46.7c-13.2,15.7-21.8,35.1-24.7,55.6"/>
</g>
<g>
	<path class="st0" d="M81.6,386.9c-20.1-14.9-30.7-16.8-49-12c-8.4,2.2-31.1,18.4-32,46.4c-0.3,11.5,0.3,25.9,5.3,34.7
		c4,7,15.5,18,29.2,18.9c16.1,1,24.5-7.5,36.2-14.9C86.5,450.3,117.1,413.2,81.6,386.9z"/>
	<path class="st0" d="M35.3,382.1c-9.3,3.5-16.7,11.6-19.4,21.2"/>
	<path class="st0" d="M14.2,409.8c-1.5,3.9-2.4,8.1-2.7,12.3"/>
	<path class="st0" d="M62.6,385.9c3.8,5.6,9.5,10,16,12.2"/>
	<path class="st0" d="M69.3,392.8c9.9-12.7,26.3-20,42.3-18.8"/>
</g>
<path class="st0" d="M144.9,335.3c0,0-9.9,14.1-10.5,19.9c-0.4,5.8,8.2,20.1,8.2,20.1s12.7-9.2,9.4-22.4
	C148.7,339.7,144.9,335.3,144.9,335.3z"/>
<path class="st0" d="M372.3,19.5c0,0,8.2,15.1,13.1,18.3c5,2.9,21.6,1.6,21.6,1.6s-2.6-15.5-15.9-18.4
	C377.9,18,372.3,19.5,372.3,19.5z"/>
<path class="st0" d="M7,122c0,0-4,16.8-2.4,22.4c1.8,5.5,15,15.7,15,15.7s8.4-13.2,0.5-24.3S7,122,7,122z"/>
<path class="st0" d="M216.8,328.3c-26.4,0.4-52.6-12.1-68.8-33c-16.2-20.8-21.9-49.4-15-74.8"/>
<path class="st0" d="M148.2,194.7c13-25.9,21.9-53.9,26.2-82.6"/>
<path class="st0" d="M104.6,267c-1.7-36.5,6.5-73.5,23.5-105.8"/>
<path class="st0" d="M71.7,647.1c-17.1-22-25.7-50.4-23.7-78.2s14.6-54.7,34.7-74"/>
<path class="st0" d="M28.9,615.4c-5.3-14.8-7.5-30.8-6.4-46.5c0.9-12.2,3.8-24.2,8.5-35.5"/>
<g>
	<path class="st0" d="M711.2,113.5c-71.8,25.3-48.7,100.3-48.7,100.3l149.7-52.9C812.2,160.9,783,88.2,711.2,113.5z"/>
	<path class="st0" d="M670.3,141.1c0,0-12.2-50.1,28-64.3s59.3,33.5,59.3,33.5"/>
	<polyline class="st0" points="664.9,154.8 643.5,150.6 640,168.3 660.2,171.6 	"/>
	<polyline class="st0" points="662.5,213.8 666.5,225 816.2,172.1 812.2,160.9 	"/>
	<path class="st0" d="M751.3,116.7c13.5,1.5,26.1,9.1,33.8,20.2"/>
	<path class="st0" d="M633,140.5c-10.1-0.9-13.5,8.6-13.5,8.6l24,1.5C643.5,150.6,643.2,141.4,633,140.5z"/>
	<path class="st0" d="M634,174.4c-7.7,10.8-13.8,15.9-24.1,24.3c-10.3,8.4-23.5,14-36.7,12.3s-25.6-11.9-27-25.1
		c-9.2,9.1-25.5,9-35.4,0.7s-13.1-23.3-8.6-35.4c4.5-12.1,15.8-21.1,28.4-24.2c-13.5-9.8-12.4-32.1-0.8-44.2
		c11.5-12.1,29.7-15.4,46.3-14c9.3,0.8,18.7,2.9,26.6,7.8c7.9,4.9,14.2,13,15.3,22.3c0.9,7.4-1.3,15.6,2.8,21.9
		c2.5,3.9,4,2.5,6.9,6.1"/>
	<circle class="st0" cx="707.8" cy="103.8" r="6.8"/>
	<path class="st0" d="M546.7,107.6c0,0,3.6-25.6,29.1-14.1"/>
	<path class="st0" d="M523.3,155c0,0-9.6,15.5,7.2,21.5"/>
	<path class="st0" d="M572.7,174.4c0,0,10.9,23,34,5.3"/>
</g>
<g>
	<g>
		<path d="M1125.1,219.7c-1.1-0.5-2.2-0.9-3.3-1.1c0,0,0,0,0,0c-7.7-1.7-16.5,1.1-25.5,8.3c-18,14.4-28.6,36.2-37.9,55.5
			c0,0,0,0.1-0.1,0.2l-1.5,3.8c-2.5,5.6-2,12.9-0.6,17.8c1.9,6.4,13.1,9.6,18.4,9.8c0.1,0,0.3,0,0.4,0c7.3,0,11-7.8,14.3-14.7
			c0.9-2,1.8-3.9,2.8-5.5c6.8-11.8,16-22.4,26.5-30.6c0.8-0.6,1.6-1.3,2.4-1.9c1.3-1,2.7-2.1,4-3.2V219.7z M1118.7,258.2
			c-0.8,0.6-1.7,1.3-2.5,1.9c-10.9,8.5-20.5,19.5-27.5,31.8c-1,1.7-1.9,3.7-2.9,5.8c-2.9,6.2-6,12.7-10.9,12.5
			c-5.1-0.2-13.7-3.3-14.8-6.9c-1.1-4.1-1.7-10.5,0.4-15.1c0,0,0-0.1,0-0.1l1.5-3.8c9.1-18.9,19.4-40.2,36.7-54
			c5.6-4.4,14-9.4,22.1-7.5c0.7,0.2,1.4,0.4,2.1,0.7v31.6C1121.6,255.9,1120.1,257.1,1118.7,258.2z"/>
	</g>
	<polyline class="st0" points="1064.1,309.1 1058,312.3 1068.1,316.6 1068,310.6 	"/>
</g>
<path class="st0" d="M965.8,466.9c0.8-26,2.4-54.1,19-74.2c28.4-34.5,85-28,119.9-55.8"/>
<g>
	<path d="M1124.9,350.7c-12.1,11.1-26.7,18.2-40.9,24.2c-1,0.4-1.5,1.6-1.1,2.6c0.3,0.8,1.1,1.2,1.8,1.2c0.3,0,0.5-0.1,0.8-0.2
		c13.6-5.7,27.5-12.4,39.4-22.6V350.7z"/>
</g>
<circle class="st0" cx="901.7" cy="483.8" r="14.7"/>
<circle class="st0" cx="939.7" cy="449.6" r="6.5"/>
<circle class="st0" cx="1000.3" cy="288" r="15.7"/>
<path class="st0" d="M1007.4,278.9c7.2-4.8,13.2-15.3,12.7-24c-0.5-8.7-4-16.8-7.4-24.8"/>
<g>
	<path class="st0" d="M998.4,83c-21.2,2.7-57.6,21.4-57.6,21.4l99.7,111.6c4.1,4.6,11.3,5,15.9,0.9l45.3-40.5
		c4.6-4.1,5-11.3,0.9-15.9l-60.7-67.9C1041.9,92.6,1019.6,80.5,998.4,83z"/>
	<path class="st0" d="M977.8,100.5c10.9-3.5,22.4-5.2,33.8-5.1"/>
	<g>
		<polyline class="st0" points="998.4,83 1002.8,48.9 1047.5,98.9 		"/>
		<path class="st0" d="M956.9,94.9c-3-0.5-5.4-3.3-5.4-6.4c0-3,2.5-5.8,5.5-6.3c-0.3-5.3,1.9-10.4,4.7-14.9
			c4.5-7.3,11.2-13.8,19.5-15.7c8.3-2,16.5-0.6,19.4,7.4"/>
		<path class="st0" d="M950.2,99.3c-11.8-4.2-21.7-8.8-32.7-14.9c5.2-14.8,12.3-28.9,21-41.9c9.4,5.7,18.8,11.4,28.1,17.1"/>
		<path class="st0" d="M971.8,55.8c-5.2-7.1-15.7-21.4-15.7-21.4l8.8-5.3l14.9,22.2"/>
		<line class="st0" x1="1000.6" y1="171.3" x2="1062.7" y2="115.8"/>
		<path class="st0" d="M969.8,67.6c2.9-4.1,7.6-7,12.7-7.7"/>
	</g>
</g>
<circle class="st0" cx="719.6" cy="261.6" r="18.5"/>
<circle class="st0" cx="714.6" cy="2297.7" r="18.5"/>
<path class="st0" d="M970.9,925.9c4.3-38.7,38.4-66,69.2-89.8c30.8-23.8,63.6-53.9,63.4-92.8"/>
<path class="st0" d="M1106.5,945.5c-14.4-12.9-25-29.9-30.3-48.5c-1.6-5.5-3.1-11.6-7.9-14.6c-5.2-3.1-12.4-1-16.3,3.6
	c-4,4.6-5.3,10.9-5.6,16.9c-0.2,4.4,0.1,9,2.3,12.9c2.2,3.9,6.6,6.7,10.9,5.9c4.4-0.8,7.6-6.1,5.4-10"/>
<path class="st0" d="M1101.2,819.8c17.7-42.4,30.9-88,26.4-133.7s-29.6-91.4-71.4-110.5"/>
<g>
	<path d="M1125.1,557.2c-1.4-1.6-3.1-2.9-5.1-3.9c-4.1-2-8.5-1.9-12.1,0.2c-0.9,0.6-1.2,1.8-0.7,2.7c0.6,0.9,1.8,1.2,2.7,0.7
		c2.3-1.4,5.3-1.4,8.3,0c3.2,1.6,5.5,4.5,5.9,7.6c0.4,2.9-0.5,5.9-2.5,8.4c-2.2,2.9-5.6,4.8-8.9,5.2c-6.5,0.8-13.6-3.1-17.1-9.4
		c-3.2-5.6-4-13.2-2-20.8c1.6-6.2,4.7-12.3,10.1-19.7c0.6-0.9,0.5-2.1-0.4-2.8c-0.9-0.6-2.1-0.4-2.8,0.4c-5.7,7.9-9,14.4-10.7,21.1
		c-2.2,8.6-1.3,17.3,2.4,23.8c4,7.1,11.4,11.5,18.9,11.5c0.7,0,1.4,0,2.2-0.1c4.5-0.5,8.7-3,11.6-6.7c0.1-0.1,0.2-0.2,0.2-0.3V557.2
		z"/>
</g>
<path class="st0" d="M1017,6.1c4.8,15,15.9,27.8,30.1,34.7c14.1,6.9,31.1,7.7,45.9,2.1c5.5-2.1,10.8-5.1,14.4-9.6
	c3.7-4.6,5.4-11,3.5-16.5c-3.2-9.4-15.4-12.6-25.2-11c-5.7,1-11.7,3.5-14.2,8.8c-2.4,5.3,1.3,13,7.1,12.5"/>
<path class="st0" d="M775.9,65.4c34.3,17.5,75.1,21.7,112.2,11.7"/>
<path class="st0" d="M745,22.1c25.3,17.5,56,27,86.8,26.7"/>
<path class="st0" d="M453.3,128c10.5-8.4,21.2-17,28.8-28.2c7.6-11.2,11.7-25.4,7.7-38.3c-5.3-17.2-26.1-27.8-43.1-22
	c-8.3,2.8-15.7,9.4-17.9,17.9s1.6,18.6,9.6,22.2c8,3.6,19.1-1.3,20.6-10"/>
<path class="st0" d="M508.9,83.3c5.6-12.8,4.1-28.5-3.9-40s-22.2-18.4-36.2-17.6"/>
<path class="st0" d="M90.1,208.5c15.6-34.5,19.8-73,32.4-108.7s37.5-71.1,74.4-79.1"/>
<path class="st0" d="M79.1,156.2c-3.7,21.2-15.8,39.8-26.5,58.5s-20.8,39.1-19.4,60.6c0.6,9.2,3.8,19,11.3,24.4s20,4.2,24-4.1
	c4.5-9.1-4.5-20.7-14.6-21.2"/>
<path class="st0" d="M177,2210.2c-11.6,13.1-19.4,29-29.2,43.5s-22.6,28.1-39.4,32.9s-37.9-2.5-43.4-19.1
	c-4.4-13.3,2.1-28.1,11.4-38.6c4.4-4.9,9.6-9.5,16-11.1s14.1,0.5,17.3,6.3s-0.5,14.6-7,15"/>
<path class="st0" d="M238.5,2087.4c0,0-9.9,14.1-10.5,19.9c-0.5,5.7,8.2,20.1,8.2,20.1s12.7-9.2,9.4-22.4S238.5,2087.4,238.5,2087.4
	z"/>
<line class="st0" x1="236.2" y1="2127.4" x2="237.1" y2="2114.5"/>
<polygon class="st0" points="85.9,2045.6 108,2077.4 139.7,2063.8 133.4,2025.3 "/>
<path class="st0" d="M85.9,2045.6c-5.3,0.2-9.2-2.3-11.4-7.2c-2.2-4.9-8.2-24.4,25-38.7c17.2-7.4,33,1,35.9,7.7
	c2.4,5.8,2.1,12.1-1.2,17.4"/>
<line class="st0" x1="126.2" y1="2034.4" x2="131.4" y2="2059.9"/>
<line class="st0" x1="112.9" y1="2067.4" x2="97.8" y2="2046.1"/>
<line class="st0" x1="122.3" y1="2063.6" x2="112.5" y2="2040.6"/>
<line class="st0" x1="88.2" y1="2014" x2="91.2" y2="2010.3"/>
<line class="st0" x1="97.5" y1="2005.7" x2="102.6" y2="2005.5"/>
<line class="st0" x1="110.8" y1="2005.2" x2="116" y2="2003"/>
<line class="st0" x1="96.5" y1="2015.4" x2="100.8" y2="2013.5"/>
<line class="st0" x1="80.1" y1="2020" x2="83.6" y2="2020.9"/>
<path class="st0" d="M59.7,2177.8c12.4-10.8,24.2-22.9,30.8-38c6.6-15.1,7.2-33.5-1.8-47.3c-4.9-7.3-12.9-13.1-21.7-13
	s-17.5,7.7-16.9,16.5"/>
<path class="st0" d="M89.1,1975.4c-22-11.2-39.2-31.2-47.1-54.6s-6.2-49.8,4.5-71.9"/>
<g>
	<g>
		<path class="st0" d="M654.7,8.1c-31.7-7.8-54.1,10.3-54.1,10.3l-14.4-11c-1.7-1.3-4.1,0.4-3.5,2.4v0c2.8,8.7,1.1,18.3-4.5,25.5
			l-1,1.3c-1.3,1.7,0.4,4.2,2.5,3.5l17.7-6c0,0,18.7,25.7,47.4,30.1s43.5-18,43.5-18S686.3,15.8,654.7,8.1z"/>
		<path class="st0" d="M674.2,19c-9.4,12.6-13.6,27.6-10.9,43.2"/>
		<path class="st0" d="M677.3,39.6c-1.4-1.1-3.3-0.9-4.4,0.4c-1,1.3-0.8,3.3,0.6,4.4s3.3,0.9,4.4-0.4
			C678.9,42.6,678.6,40.7,677.3,39.6z"/>
	</g>
	<path class="st0" d="M644.8,18c0,0,5.8,7.8-2,11.7"/>
	<path class="st0" d="M625.5,29.7c0,0,5.8,7.8-2,11.7"/>
	<path class="st0" d="M644.8,40.1c0,0,5.8,7.8-2,11.7"/>
</g>
<path class="st0" d="M902.1,2100.3c-30-14-55.2,22.8-30.2,39.4c18.9,12.6,39.8-2.8,34.1-20.6c-4.7-14.6-29.7-16.5-31.2,1.1
	c-1.4,16.6,22.4,11.1,14.8-1.7"/>
<path class="st0" d="M61.3,847.1c-7.8-38.7-60.9-36.8-59.2-1.1C3.4,873.1,33,882.2,46,864.2c10.7-14.8-5.2-40.1-23.1-29.1
	C6,845.4,28.1,864.4,35,848.1"/>
<g>
	<g>
		<path d="M15.8,1998.6l-15.8-81v20.8l11.6,59.3c-2,0.8-6.1,2.5-11.6,4.5v4.3c9-3.3,14.5-5.7,14.7-5.7
			C15.5,2000.5,16,1999.5,15.8,1998.6z"/>
	</g>
</g>
<g>
	<g>
		<path d="M23.6,2276.3c-1.6-7.4-4.7-12.6-9.2-15.3c-5-3.1-9.8-2-10-1.9l-4.5,1v4.1l5.4-1.2c0,0,3.4-0.8,7,1.4
			c3.5,2.2,6,6.5,7.4,12.8c3.6,16.6-6.6,19.4-7,19.5L0,2299.4v4.1l13.6-3C13.8,2300.4,28.2,2296.8,23.6,2276.3z"/>
	</g>
	<g>
		<path d="M2.1,2289.5c-0.2-1-1.1-1.6-2.1-1.6v4.1l0.6-0.1C1.6,2291.6,2.3,2290.6,2.1,2289.5z"/>
	</g>
	<g>
		<path d="M8.7,2269.1c-0.2-1.1-1.3-1.8-2.4-1.5L0,2269v4.1l7.2-1.6C8.3,2271.2,9,2270.2,8.7,2269.1z"/>
	</g>
	<g>
		<path d="M11,2313.7c0.3-2.5-1-4.9-3.2-6l-7.8-3.9v4.5l6,3c1.1,0.6,1.1,1.6,1,1.9c0,0.3-0.3,1.4-1.5,1.6c-1.7,0.4-3.6,0.8-5.6,1.3
			v4.1c2.3-0.5,4.5-1,6.5-1.5C8.9,2318.2,10.7,2316.2,11,2313.7z"/>
	</g>
	<g>
		<path d="M26.7,2350.9l-5.9-26.9c-0.2-1.1-1.3-1.8-2.4-1.5L0,2326.5v4.1l17.3-3.8l5.5,24.9c2.3,10.4-4.3,20.8-14.8,23.1l-8.1,1.8
			v4.1l8.9-2C21.5,2375.9,29.5,2363.4,26.7,2350.9z"/>
	</g>
	<g>
		<path d="M1.4,2328.3l-1.4-6.3v8.7C1,2330.3,1.6,2329.3,1.4,2328.3z"/>
	</g>
</g>
<g>
	<g>
		<path d="M26.4,2138c0-8.8-7.2-16-16-16c-4,0-7.6,1.5-10.4,3.9v6.2c2.1-3.6,6-6.1,10.4-6.1c6.6,0,12,5.4,12,12s-5.4,12-12,12
			c-4.5,0-8.4-2.5-10.4-6.1v6.2c2.8,2.4,6.5,3.9,10.4,3.9C19.3,2154,26.4,2146.9,26.4,2138z"/>
	</g>
	<g>
		<path d="M10.3,2126.1c0.4,0,0.9-0.1,1.2-0.4c0.9-0.7,1-1.9,0.3-2.8c0-0.1-4.6-5.8-11.9-16.2v6.9c5.4,7.6,8.7,11.7,8.8,11.8
			C9.2,2125.9,9.8,2126.1,10.3,2126.1z"/>
	</g>
	<g>
		<path d="M21.6,2092.1c5.9,0,8.6-0.9,8.8-1c0.6-0.2,1-0.7,1.2-1.2c0.2-0.6,0.1-1.2-0.2-1.7c-1-1.5-9.7-15-15.3-17.9
			c-3.5-1.8-10.7-1.6-16.2-1.1v4c5.6-0.5,11.9-0.7,14.3,0.6c3.2,1.7,8.8,9.3,12.1,14c-2.8,0.3-7.7,0.5-15.4-0.6
			c-5-0.7-8.6-3.6-11-6.8v5.9c2.7,2.3,6.1,4.2,10.5,4.8C15,2091.9,18.7,2092.1,21.6,2092.1z"/>
	</g>
	<g>
		<path d="M7.3,2082.4c0.7,0,1.3-0.3,1.7-1c0.6-0.9,0.3-2.2-0.7-2.7l-8.4-5.1v4.7l6.3,3.8C6.6,2082.3,7,2082.4,7.3,2082.4z"/>
	</g>
</g>
<g>
	<g>
		<path d="M5.3,1737.8c2.9-0.5,5.3-2.3,6.9-5c2.1-3.6,2.5-8.6,1.1-12.6c-1.4-4.4-4.5-7.8-8.1-9.1c-1.7-0.6-3.5-0.7-5.1-0.4v4.1
			c1.2-0.4,2.5-0.4,3.8,0c2.5,0.9,4.7,3.3,5.7,6.6c1.1,3,0.8,6.7-0.8,9.3c-0.7,1.2-2,2.7-4.2,3.1c-1.5,0.3-3,0-4.5-0.6v4.2
			c1.1,0.3,2.2,0.5,3.4,0.5C4,1737.9,4.6,1737.9,5.3,1737.8z"/>
		<path d="M2.4,1723.3c-0.2-1.1-1.2-1.8-2.3-1.7c0,0-0.1,0-0.1,0v4c0.2,0,0.5,0,0.7-0.1C1.8,1725.4,2.5,1724.4,2.4,1723.3z"/>
	</g>
</g>
<g>
	<g>
		<path d="M22.1,1343.9c0.8,0,1.6-0.5,1.9-1.4c0.4-1.1,8.8-27.8-3.8-52.2c-5.5-10.6-13-17.6-20.2-22.3v4.9
			c6,4.3,12.2,10.5,16.7,19.2c10,19.3,5.8,40.8,4.1,47.2c-3.8-1.3-12.6-4.7-20.8-10.2v4.8c10.4,6.5,20.8,9.7,21.6,9.9
			C21.8,1343.9,22,1343.9,22.1,1343.9z"/>
	</g>
	<g>
		<path d="M22.1,1343.9c0.3,0,0.6-0.1,0.9-0.2c1-0.5,1.4-1.7,0.9-2.7L0,1295v8.7l20.4,39.2C20.7,1343.5,21.4,1343.9,22.1,1343.9z"/>
	</g>
</g>
<g>
	<g>
		<path d="M11.3,243.9c2.5-8-0.9-17.4-8-22.4c-1-0.7-2.1-1.3-3.3-1.8v4.5c0.3,0.2,0.7,0.4,1,0.6c5.7,4.1,8.4,11.6,6.5,18
			c-1.3,4-4.1,7.3-7.4,10.3v5.2C4.9,254.4,9.3,250,11.3,243.9z"/>
	</g>
	<g>
		<path d="M-0.1,217.5l0.1,2.8v-3.7C-0.1,216.9-0.2,217.2-0.1,217.5z"/>
		<path d="M2.3,225.1c1.1-0.1,2-1,1.9-2.1L4,221.1l2.5,1.6l-2.4,1.6c-0.9,0.6-1.2,1.8-0.6,2.8c0.4,0.6,1,0.9,1.7,0.9
			c0.4,0,0.8-0.1,1.1-0.3l5-3.3c0.6-0.4,0.9-1,0.9-1.7c0-0.7-0.4-1.3-0.9-1.7l-8.4-5.3c-0.6-0.4-1.4-0.4-2.1,0
			c-0.4,0.2-0.7,0.6-0.8,1v3.7l0.2,3C0.2,224.4,1.1,225.2,2.3,225.1z"/>
	</g>
</g>
<g>
	<path d="M4.6,685.9c-0.8-8.6-2.4-17.1-4.6-25.3v20.5c0.2,1.7,0.4,3.5,0.6,5.2C2,700,1.8,714.1,0,729v24.1
		C5.2,729,6.7,706.9,4.6,685.9z"/>
</g>
<g>
	<path d="M3.2,563.9c-0.3-2.5-1.5-4.9-3.2-6.9v18.1C2.6,571.7,3.7,567.8,3.2,563.9z"/>
</g>
<g>
	<g>
		<g>
			<path d="M852.2,0.6c-3.6,0.8-7.2,0.5-10.5-0.6h-8.2c0.6,0.5,1.3,1,2,1.4c3.8,2.4,8.1,3.7,12.5,3.7c1.7,0,3.4-0.2,5.1-0.6L873.7,0
				h-18.6L852.2,0.6z"/>
		</g>
	</g>
</g>
<path class="st0" d="M938.5,1972.2c0,0,15.9,57.5-40.8,93"/>
<path class="st0" d="M919.4,1988.3c0,0,8.5,40.7-26,54.7"/>
<path class="st0" d="M590.7,2043c0,0,24.7-14.9,30.3,14.5"/>
<path class="st0" d="M526.7,2126.5c0,0,17-24.1,35.8-28.9"/>
</svg>
