<svg width="36" height="36" viewBox="0 0 36 36" fill="none" xmlns="http://www.w3.org/2000/svg">
<g clip-path="url(#clip0_555_22)">
<path d="M24.1594 20.25C24.0356 21.5934 23.4771 22.8598 22.5685 23.8571C21.66 24.8545 20.4511 25.5283 19.125 25.7766" stroke="white" stroke-width="2.25" stroke-linecap="round" stroke-linejoin="round"/>
<path d="M10.125 9.1969C7.95938 12.4594 6.1875 16.2 6.1875 19.6875C6.1875 22.8204 7.43203 25.825 9.6473 28.0402C11.8626 30.2555 14.8671 31.5 18 31.5C21.1329 31.5 24.1374 30.2555 26.3527 28.0402C28.568 25.825 29.8125 22.8204 29.8125 19.6875C29.8125 12.375 24.75 6.75002 20.6438 2.65784L15.75 12.9375L10.125 9.1969Z" stroke="white" stroke-width="2.25" stroke-linecap="round" stroke-linejoin="round"/>
</g>
<defs>
<clipPath id="clip0_555_22">
<rect width="36" height="36" fill="white"/>
</clipPath>
</defs>
</svg>
