<svg width="24" height="24" viewBox="0 0 24 24" fill="none" xmlns="http://www.w3.org/2000/svg">
<path d="M11.8856 3.62466L4.5 4.5L3.81226 12.0731C3.79073 12.1831 3.79659 12.2967 3.82933 12.4038C3.86208 12.511 3.92069 12.6084 4 12.6876L12.5969 21.2842C12.6597 21.3485 12.7347 21.3995 12.8175 21.4344C12.9003 21.4692 12.9893 21.4872 13.0791 21.4872C13.1689 21.4872 13.2579 21.4692 13.3407 21.4344C13.4235 21.3995 13.4985 21.3485 13.5612 21.2842L21.2843 13.5612C21.3485 13.4984 21.3996 13.4234 21.4344 13.3406C21.4693 13.2578 21.4872 13.1689 21.4872 13.079C21.4872 12.9892 21.4693 12.9003 21.4344 12.8175C21.3996 12.7347 21.3485 12.6597 21.2843 12.5969L12.5 3.8124C12.4209 3.73309 12.3234 3.67448 12.2163 3.64174C12.1091 3.609 11.9956 3.60313 11.8856 3.62466Z" stroke="#2C2A33" stroke-width="2" stroke-linecap="round" stroke-linejoin="round"/>
<path d="M8.75 10.25C9.57843 10.25 10.25 9.57843 10.25 8.75C10.25 7.92157 9.57843 7.25 8.75 7.25C7.92157 7.25 7.25 7.92157 7.25 8.75C7.25 9.57843 7.92157 10.25 8.75 10.25Z" fill="#2C2A33"/>
</svg>
