<svg width="24" height="24" viewBox="0 0 24 24" fill="none" xmlns="http://www.w3.org/2000/svg">
<path d="M4.25626 16.5938C3.13959 14.7098 2.74899 12.483 3.1578 10.3315C3.5666 8.17989 4.74669 6.25153 6.47652 4.90838C8.20636 3.56523 10.367 2.89967 12.5527 3.03666C14.7385 3.17364 16.7991 4.10374 18.3477 5.65235C19.8963 7.20095 20.8264 9.26157 20.9634 11.4473C21.1004 13.6331 20.4349 15.7937 19.0917 17.5236C17.7486 19.2534 15.8202 20.4335 13.6686 20.8423C11.5171 21.2511 9.29025 20.8605 7.40626 19.7438L4.29376 20.6251C4.16624 20.6624 4.03103 20.6647 3.90231 20.6317C3.77359 20.5988 3.6561 20.5319 3.56215 20.4379C3.4682 20.344 3.40126 20.2265 3.36833 20.0978C3.33541 19.969 3.33771 19.8338 3.37501 19.7063L4.25626 16.5938Z" stroke="#2C2A33" stroke-width="2.25" stroke-linecap="round" stroke-linejoin="round"/>
<path d="M9 10.125H15" stroke="#2C2A33" stroke-width="2.25" stroke-linecap="round" stroke-linejoin="round"/>
<path d="M9 13.875H15" stroke="#2C2A33" stroke-width="2.25" stroke-linecap="round" stroke-linejoin="round"/>
</svg>
